<?xml version="1.0" encoding="utf-8"?>
<!-- Generator: Adobe Illustrator 23.1.1, SVG Export Plug-In . SVG Version: 6.00 Build 0)  -->
<svg version="1.1" id="Layer_1" xmlns="http://www.w3.org/2000/svg" xmlns:xlink="http://www.w3.org/1999/xlink" x="0px" y="0px"
	 width="106.2px" height="137.4px" viewBox="0 0 106.2 137.4" style="enable-background:new 0 0 106.2 137.4;" xml:space="preserve"
	>
<style type="text/css">
	.st0{fill:#484848;}
	.st1{fill:#E24B74;}
</style>
<g id="Group_190" transform="translate(-749.999 -2451)">
	<g id="noun_Soundwave_1786373" transform="translate(862.998 2551) rotate(180)">
		<path id="Path_241" class="st0" d="M90.2,28.3h-6.1c-4.5,0-8.1,3.6-8.1,8.1V42c0,1.6-1.3,2.8-2.8,2.8c-1.6,0-2.8-1.3-2.8-2.8V-4.9
			c0-4.9-4-8.8-8.8-8.8c-4.9,0-8.8,3.9-8.8,8.8v72.4c0,1.6-1.3,2.8-2.8,2.8s-2.8-1.3-2.8-2.8l0,0V9.8c0-4.9-3.9-8.8-8.8-8.8
			s-8.8,3.9-8.8,8.8v31.9c0.1,1.5-1,2.8-2.5,3s-2.9-1-3.1-2.5c0-0.1,0-0.2,0-0.3v-5.6c0-4.5-3.6-8.1-8.1-8.1h-6c-1.7,0-3,1.3-3,3
			c0,1.7,1.3,3,3,3H16c1.2,0,2.1,0.9,2.1,2.1v5.6c0,4.9,3.9,8.8,8.8,8.8c0.3,0,0.6,0,0.9,0c4.6-0.5,8-4.4,8-9V9.8
			c0-1.6,1.3-2.8,2.8-2.8c1.6,0,2.8,1.3,2.8,2.8l0,0v57.7c0,4.9,3.9,8.8,8.8,8.8s8.8-3.9,8.8-8.8V-4.9c0-1.6,1.3-2.8,2.8-2.8
			c1.6,0,2.8,1.3,2.8,2.8v46.8c0,4.9,3.9,8.8,8.8,8.8s8.8-3.9,8.8-8.8v-5.6c0-1.2,0.9-2.1,2.1-2.1h6.1c1.7,0,3-1.3,3-3
			C93.4,29.5,91.9,28.3,90.2,28.3L90.2,28.3z"/>
	</g>
	<polygon class="st1" points="762.5,2563.6 750,2563.6 750,2469.7 762.5,2469.7 762.5,2475.7 756,2475.7 756,2557.6 762.5,2557.6 	
		"/>
</g>
</svg>
