<?xml version="1.0" encoding="utf-8"?>
<!-- Generator: Adobe Illustrator 23.1.1, SVG Export Plug-In . SVG Version: 6.00 Build 0)  -->
<svg version="1.1" id="Layer_1" xmlns="http://www.w3.org/2000/svg" xmlns:xlink="http://www.w3.org/1999/xlink" x="0px" y="0px"
	 width="86.4px" height="137.7px" viewBox="0 0 86.4 137.7" style="enable-background:new 0 0 86.4 137.7;" xml:space="preserve">
<style type="text/css">
	.st0{fill:#484848;}
	.st1{fill:#E24B74;}
</style>
<g id="Group_191" transform="translate(-1131.782 -2436.024)">
	<g id="noun_Soundwave_1786373" transform="translate(1125 2451)">
		<path id="Path_241" class="st0" d="M90.2,50.7h-6.1c-4.5,0-8.1,3.6-8.1,8.1v5.6c0,1.6-1.3,2.8-2.8,2.8c-1.6,0-2.8-1.3-2.8-2.8
			V17.5c0-4.9-4-8.8-8.8-8.8c-4.9,0-8.8,3.9-8.8,8.8v72.4c0,1.6-1.3,2.8-2.8,2.8s-2.8-1.3-2.8-2.8l0,0V32.2c0-4.9-3.9-8.8-8.8-8.8
			s-8.8,3.9-8.8,8.8v31.9c0.1,1.5-1,2.8-2.5,3c-1.5,0.2-2.9-1-3.1-2.5c0-0.1,0-0.2,0-0.3v-5.6c0-4.5-3.6-8.1-8.1-8.1h-6
			c-1.7,0-3,1.3-3,3s1.3,3,3,3H16c1.2,0,2.1,0.9,2.1,2.1v5.6c0,4.9,3.9,8.8,8.8,8.8c0.3,0,0.6,0,0.9,0c4.6-0.5,8-4.4,8-9V32.2
			c0-1.6,1.3-2.8,2.8-2.8c1.6,0,2.8,1.3,2.8,2.8l0,0v57.7c0,4.9,3.9,8.8,8.8,8.8s8.8-3.9,8.8-8.8V17.5c0-1.6,1.3-2.8,2.8-2.8
			c1.6,0,2.8,1.3,2.8,2.8v46.8c0,4.9,3.9,8.8,8.8,8.8s8.8-3.9,8.8-8.8v-5.6c0-1.2,0.9-2.1,2.1-2.1h6.1c1.7,0,3-1.3,3-3
			S91.9,50.7,90.2,50.7L90.2,50.7z"/>
	</g>
	<polygon class="st1" points="1190,2452.2 1184,2452.2 1184,2445.7 1167,2445.7 1167,2452.2 1161,2452.2 1161,2439.7 1190,2439.7 	
		"/>
</g>
</svg>
