<?xml version="1.0" encoding="utf-8"?>
<!-- Generator: Adobe Illustrator 23.1.1, SVG Export Plug-In . SVG Version: 6.00 Build 0)  -->
<svg version="1.1" id="Layer_1" xmlns="http://www.w3.org/2000/svg" xmlns:xlink="http://www.w3.org/1999/xlink" x="0px" y="0px"
	 width="176.4px" height="137.9px" viewBox="0 0 176.4 137.9" style="enable-background:new 0 0 176.4 137.9;" xml:space="preserve"
	>
<style type="text/css">
	.st0{fill:#484848;}
	.st1{fill:#E24B74;}
</style>
<path class="st0" d="M173.4,65.9L173.4,65.9h-6.1c-4.5,0-8.1,3.6-8.1,8.1v5.6c0,1.6-1.3,2.8-2.8,2.8c-1.6,0-2.8-1.3-2.8-2.8V32.8
	c0-4.9-4-8.8-8.8-8.8c-4.9,0-8.8,3.9-8.8,8.8v72.4c0,1.6-1.3,2.8-2.8,2.8c-1.6,0-2.8-1.3-2.8-2.8l0,0V47.5c0-4.9-3.9-8.8-8.8-8.8
	s-8.8,3.9-8.8,8.8v31.9c0.1,1.5-1,2.8-2.5,3s-2.9-1-3.1-2.5c0-0.1,0-0.2,0-0.3V74c0-4.5-3.6-8.1-8.1-8.1H84.7c-0.3,0-0.5,0-0.7,0.1
	c-0.2,0-0.3,0-0.5,0h-6.1c-1.2,0-2.1-0.9-2.1-2.1v-5.6c0-4.9-3.9-8.8-8.8-8.8c-0.3,0-0.6,0-0.9,0c-4.6,0.5-8,4.4-8,9v31.9
	c0,1.6-1.3,2.8-2.8,2.8c-1.6,0-2.8-1.3-2.8-2.8l0,0V32.8c0-4.9-3.9-8.8-8.8-8.8s-8.8,3.9-8.8,8.8v72.4c0,1.6-1.3,2.8-2.8,2.8
	c-1.6,0-2.8-1.3-2.8-2.8V58.3c0-4.9-3.9-8.8-8.8-8.8s-8.8,3.9-8.8,8.8v5.6c0,1.2-0.9,2.1-2.1,2.1H3c-1.7,0-3,1.3-3,3s1.3,3,3,3l0,0
	h6.1c4.5,0,8.1-3.6,8.1-8.1v-5.6c0-1.6,1.3-2.8,2.8-2.8c1.6,0,2.8,1.3,2.8,2.8v46.8c0,4.9,4,8.8,8.8,8.8c4.9,0,8.8-3.9,8.8-8.8V32.8
	c0-1.6,1.3-2.8,2.8-2.8s2.8,1.3,2.8,2.8l0,0v57.7c0,4.9,3.9,8.8,8.8,8.8s8.8-3.9,8.8-8.8V58.6c-0.1-1.5,1-2.8,2.5-3s2.9,1,3.1,2.5
	c0,0.1,0,0.2,0,0.3V64c0,4.5,3.6,8.1,8.1,8.1h6c0.3,0,0.5,0,0.7-0.1c0.2,0,0.3,0,0.5,0h14.4c1.2,0,2.1,0.9,2.1,2.1v5.6
	c0,4.9,3.9,8.8,8.8,8.8c0.3,0,0.6,0,0.9,0c4.6-0.5,8-4.4,8-9v-32c0-1.6,1.3-2.8,2.8-2.8s2.8,1.3,2.8,2.8l0,0v57.7
	c0,4.9,3.9,8.8,8.8,8.8s8.8-3.9,8.8-8.8V32.8c0-1.6,1.3-2.8,2.8-2.8c1.6,0,2.8,1.3,2.8,2.8v46.8c0,4.9,3.9,8.8,8.8,8.8
	c4.9,0,8.8-3.9,8.8-8.8V74c0-1.2,0.9-2.1,2.1-2.1h6.1c1.7,0,3-1.3,3-3C176.4,67.3,175.1,65.9,173.4,65.9z"/>
<polygon class="st1" points="137.7,12.5 131.7,12.5 131.7,6 46.2,6 46.2,12.5 40.2,12.5 40.2,0 137.7,0 "/>
</svg>
