<?xml version="1.0" encoding="utf-8"?>
<!-- Generator: Adobe Illustrator 23.1.1, SVG Export Plug-In . SVG Version: 6.00 Build 0)  -->
<svg version="1.1" id="Layer_1" xmlns="http://www.w3.org/2000/svg" xmlns:xlink="http://www.w3.org/1999/xlink" x="0px" y="0px"
	 width="96px" height="90px" viewBox="0 0 96 90" style="enable-background:new 0 0 96 90;" xml:space="preserve">
<style type="text/css">
	.st0{fill:none;stroke:#E24B74;stroke-width:3;stroke-miterlimit:10;}
</style>
<path class="st0" d="M69.2,35.7H56.3V22.8c0-2.1-1.7-3.8-3.8-3.8h-10c-2.1,0-3.8,1.7-3.8,3.8v12.9H26.8c-2.1,0-3.8,1.7-3.8,3.8v10
	c0,2.1,1.7,3.8,3.8,3.8h12.1v12.1c0,2.1,1.7,3.8,3.8,3.8h10c2.1,0,3.8-1.7,3.8-3.8V53.2h12.9c2.1,0,3.8-1.7,3.8-3.8v-10
	C73,37.3,71.3,35.7,69.2,35.7z"/>
</svg>
