<?xml version="1.0" encoding="utf-8"?>
<!-- Generator: Adobe Illustrator 23.1.1, SVG Export Plug-In . SVG Version: 6.00 Build 0)  -->
<svg version="1.1" id="Layer_1" xmlns="http://www.w3.org/2000/svg" xmlns:xlink="http://www.w3.org/1999/xlink" x="0px" y="0px"
	 width="100px" height="98px" viewBox="0 0 100 98" style="enable-background:new 0 0 100 98;" xml:space="preserve">
<style type="text/css">
	.st0{fill:#E24B74;}
</style>
<path class="st0" d="M62.6,34.4c2.6,0.6,5.5-0.4,7-2.9c1.9-3.1,0.9-7.1-2.1-9c-3.1-1.9-7.1-0.9-9,2.1c-1.6,2.7-1.1,6.3,1.3,8.3
	l-4.5,7.4c-1.6-0.8-3.4-1.1-5.1-0.9l-2.8-11.6c1-0.5,2-1.4,2.7-2.3c1.9-3.1,0.9-7.1-2.1-9c-3.1-1.9-7.1-0.9-9,2.1
	c-1.9,3.1-0.9,7.1,2.1,9c1.1,0.6,2.3,0.9,3.4,1l2.8,11.6c-1.2,0.5-2.5,1.4-3.5,2.4l-23-14.1c0.6-2.6-0.4-5.5-2.9-7
	c-3.1-1.9-7.1-0.9-9,2.1s-0.9,7.1,2.1,9c2.7,1.6,6.3,1.1,8.3-1.3L42,45c-0.8,1.6-1.1,3.4-0.9,5.1l-11.7,2.8c-0.5-1-1.4-2-2.3-2.7
	c-3.1-1.9-7.1-0.9-9,2.1c-1.9,3.1-0.9,7.1,2.1,9s7.1,0.9,9-2.1c0.6-1.1,0.9-2.3,1-3.4L41.9,53c0.7,1.6,1.7,3.1,3.2,4.2l-7.4,12.1
	c-2.9-1.2-6.4-0.1-8,2.6c-1.9,3.1-0.9,7.1,2.1,9s7.1,0.9,9-2.1c1.5-2.5,1.1-5.5-0.6-7.7l7.7-12.4c1.3,0.5,2.8,0.7,4.2,0.6l4,17
	c-1,0.5-2,1.4-2.7,2.3c-1.9,3.1-0.9,7.1,2.1,9c3.1,1.9,7.1,0.9,9-2.1c1.9-3,0.9-7.1-2.1-9c-1.1-0.6-2.3-0.9-3.4-1l-4-17
	c1.6-0.7,3.1-1.7,4.2-3.2l4.1,2.4c-1.2,2.9-0.1,6.4,2.6,8c3.1,1.9,7.1,0.9,9-2.1s0.9-7.1-2.1-9c-2.5-1.5-5.5-1.1-7.7,0.6l-4.6-2.7
	c0.5-1.3,0.7-2.8,0.6-4.2L79,44.5c0.5,1,1.4,2,2.3,2.7c3.1,1.9,7.1,0.9,9-2.1s0.9-7.1-2.1-9c-3.1-1.9-7.1-0.9-9,2.1
	c-0.6,1.1-0.9,2.3-1,3.4l-17.9,3.8c-0.5-1.2-1.4-2.5-2.4-3.5L62.6,34.4z M61.2,26.2c1-1.6,3.2-2.1,4.8-1.2c1.6,1,2.1,3.2,1.2,4.8
	c-1,1.6-3.2,2.1-4.8,1.2C60.7,30,60.1,27.9,61.2,26.2z M41.6,20.3c1-1.6,3.2-2.1,4.8-1.2c1.6,1,2.1,3.2,1.2,4.8
	c-1,1.6-3.2,2.1-4.8,1.2C41.1,24.1,40.5,21.9,41.6,20.3z M26.7,57.6c-1,1.6-3.2,2.1-4.8,1.2s-2.1-3.2-1.2-4.8c1-1.6,3.2-2.1,4.8-1.2
	S27.7,56.1,26.7,57.6z M37.9,77.2c-1,1.6-3.2,2.1-4.8,1.2c-1.6-1-2.1-3.2-1.2-4.8c1-1.6,3.2-2.1,4.8-1.2
	C38.4,73.4,39,75.6,37.9,77.2z M61.9,83.9c-1,1.6-3.2,2.1-4.8,1.2c-1.6-1-2.1-3.2-1.2-4.8c1-1.6,3.2-2.1,4.8-1.2
	C62.4,80.1,62.8,82.3,61.9,83.9z M81.7,40c1-1.6,3.2-2.1,4.8-1.2c1.6,1,2.1,3.2,1.2,4.8c-1,1.6-3.2,2.1-4.8,1.2
	C81.2,43.8,80.7,41.6,81.7,40z M12.7,29.8c-1.6-1-2.1-3.2-1.2-4.8c1-1.6,3.2-2.1,4.8-1.2c1.6,1,2.1,3.2,1.2,4.8
	C16.5,30.2,14.3,30.8,12.7,29.8z M71.1,57.4c1.6,1,2.1,3.2,1.2,4.8c-1,1.6-3.2,2.1-4.8,1.2c-1.6-1-2.1-3.2-1.2-4.8
	C67.2,56.9,69.5,56.4,71.1,57.4z M57,53c-2,3.3-6.3,4.4-9.6,2.2c-3.3-2-4.4-6.3-2.2-9.6c2-3.3,6.3-4.4,9.6-2.2
	C58,45.4,59.1,49.7,57,53z"/>
</svg>
