<?xml version="1.0" encoding="utf-8"?>
<!-- Generator: Adobe Illustrator 23.1.1, SVG Export Plug-In . SVG Version: 6.00 Build 0)  -->
<svg version="1.1" id="Layer_1" xmlns="http://www.w3.org/2000/svg" xmlns:xlink="http://www.w3.org/1999/xlink" x="0px" y="0px"
	 width="28.6px" height="27.7px" viewBox="0 0 28.6 27.7" style="enable-background:new 0 0 28.6 27.7;" xml:space="preserve">
<style type="text/css">
	.st0{fill:#E24B74;}
</style>
<g transform="translate(0,-952.36218)">
	<path class="st0" d="M10.4,959.1c-1.1,0-2.2,0.4-3,1.4c-1.6,1.8-1.6,4.6,0,6.3l6.5,6.9c0.2,0.2,0.5,0.2,0.7,0l0,0
		c2.2-2.3,4.3-4.6,6.5-6.9c1.6-1.8,1.6-4.6,0-6.3c-1.6-1.8-4.3-1.8-6,0l-0.8,0.9l-0.8-0.9C12.6,959.5,11.5,959.1,10.4,959.1
		L10.4,959.1z M10.4,960c0.8,0,1.7,0.3,2.3,1l1.2,1.3c0.2,0.2,0.5,0.2,0.7,0l0,0l1.2-1.3c1.3-1.4,3.3-1.4,4.6,0
		c1.3,1.4,1.3,3.6,0,5.1c-2,2.2-4.1,4.4-6.2,6.6l-6.1-6.6c-1.3-1.4-1.3-3.6,0-5.1C8.8,960.3,9.6,960,10.4,960z"/>
</g>
</svg>
