<?xml version="1.0" encoding="utf-8"?>
<!-- Generator: Adobe Illustrator 23.1.1, SVG Export Plug-In . SVG Version: 6.00 Build 0)  -->
<svg version="1.1" id="Layer_1" xmlns="http://www.w3.org/2000/svg" xmlns:xlink="http://www.w3.org/1999/xlink" x="0px" y="0px"
	 width="328px" height="182px" viewBox="0 0 328 182" style="enable-background:new 0 0 328 182;" xml:space="preserve">
<style type="text/css">
	.st0{fill:none;stroke:#5B5B5B;stroke-width:9;stroke-miterlimit:10;}
	.st1{fill:none;stroke:#D34F78;stroke-width:13;stroke-miterlimit:10;}
	.st2{fill:none;stroke:#D34F78;stroke-width:9;stroke-miterlimit:10;}
	.st3{fill:#484848;}
	.st4{fill:#E24B74;}
	.st5{fill:#D34F78;}
</style>
<circle class="st0" cx="-276" cy="0" r="174"/>
<polyline class="st0" points="-426.7,87 -321.3,-15.3 -167.5,136 "/>
<polyline class="st0" points="-115.4,67.2 -196.3,-11.5 -257.6,47.3 "/>
<polyline class="st0" points="-449.6,11.5 -343.9,-92.7 -230.2,21 "/>
<path class="st0" d="M-241.8-64.5c-16.6,0-22.9-34.4,5.1-34.4c0-25.5,44-25.5,44,0c24.9,0,26.8,34.4,4.5,34.4
	C-215-64.5-241.8-64.5-241.8-64.5z"/>
<circle class="st1" cx="687" cy="235" r="174"/>
<polyline class="st1" points="536.3,322 641.7,219.7 795.5,371 "/>
<polyline class="st1" points="847.6,302.2 766.7,223.5 705.4,282.3 "/>
<polyline class="st1" points="513.4,246.5 619.1,142.3 732.8,256 "/>
<polyline class="st0" points="913.4,181.5 973.8,74 1006.5,127.5 1078.1,-0.5 1190.5,181.5 "/>
<polyline class="st0" points="1124.5,75.5 1157.1,34 1248.5,181.5 "/>
<path class="st1" d="M740.2,176.7c-16.6,0-22.9-34.4,5.1-34.4c0-25.5,44-25.5,44,0c24.9,0,26.8,34.4,4.5,34.4
	C767,176.7,740.2,176.7,740.2,176.7z"/>
<path class="st2" d="M-46.8-294.5c-16.6,0-22.9-34.4,5.1-34.4c0-25.5,44-25.5,44,0c24.9,0,26.8,34.4,4.5,34.4
	C-20-294.5-46.8-294.5-46.8-294.5z"/>
<path class="st1" d="M661.7,130.8c-11.3,0-15.6-23.4,3.5-23.4c0-17.3,29.9-17.3,29.9,0c16.9,0,18.2,23.4,3,23.4
	C679.9,130.8,661.7,130.8,661.7,130.8z"/>
<line class="st1" x1="655.5" y1="284.4" x2="763" y2="391.9"/>
<line class="st1" x1="642.1" y1="350.7" x2="575.4" y2="284"/>
<line class="st1" x1="644.6" y1="167.8" x2="558.6" y2="253.8"/>
<line class="st1" x1="797.9" y1="253.6" x2="753.3" y2="298.1"/>
<line class="st1" x1="802.1" y1="332.2" x2="779.8" y2="354.6"/>
<polyline class="st3" points="552.6,-50.1 681.7,-50.1 654.4,-101.7 579,-101.7 565,-124.8 668.3,-124.8 720,-27 506,-27 
	536.7,-83.2 "/>
<polygon class="st4" points="852,-27 748.7,-27 697,-124.8 800.8,-124.8 812.9,-101.7 735.3,-101.7 762.6,-50.1 839.6,-50.1 "/>
<polygon class="st1" points="17.3,168 134,14.3 250.7,168 "/>
<polyline class="st1" points="250.7,168.5 310,168.5 207,28.5 177.5,71.5 "/>
<circle class="st5" cx="218" cy="-348" r="52"/>
</svg>
