<?xml version="1.0" encoding="utf-8"?>
<!-- Generator: Adobe Illustrator 23.0.4, SVG Export Plug-In . SVG Version: 6.00 Build 0)  -->
<svg version="1.1" id="Layer_1" xmlns="http://www.w3.org/2000/svg" xmlns:xlink="http://www.w3.org/1999/xlink" x="0px" y="0px"
	 width="399.6px" height="460.7px" viewBox="0 0 399.6 460.7" style="enable-background:new 0 0 399.6 460.7;" xml:space="preserve"
	>
<style type="text/css">
	.st0{fill:#62AEDD;}
	.st1{fill:#FDFDFD;}
	.st2{fill:#F5F5F5;}
	.st3{fill:none;}
	.st4{fill:#F15C5E;}
	.st5{fill:#D95C5E;}
	.st6{fill:#FFFFFF;}
	.st7{fill:#524257;}
	.st8{fill:#EDEDED;}
	.st9{fill:#F9B2B2;}
	.st10{fill:#EAA9A9;}
	.st11{fill:#5E4B63;}
	.st12{fill:#313131;}
	.st13{fill:#3C3C3C;}
	.st14{fill:#69536F;}
</style>
<rect id="Rectangle_1043_12_" x="190" y="186.2" class="st0" width="18.3" height="26.4"/>
<rect id="Rectangle_1044_12_" x="244.1" y="186.2" class="st0" width="18.3" height="26.4"/>
<rect id="Rectangle_1045_12_" x="298.2" y="186.2" class="st0" width="18.3" height="26.4"/>
<g id="Rectangle_1046_12_">
	
		<image style="overflow:visible;opacity:0.16;" width="91" height="99" xlink:href="BC933BCB0252F04A.png"  transform="matrix(1 0 0 1 316 156.7)">
	</image>
	<g>
		<rect x="352.3" y="186.2" class="st0" width="18.3" height="26.4"/>
	</g>
</g>
<rect id="Rectangle_1051_12_" x="190" y="132.4" class="st0" width="18.3" height="26.4"/>
<rect id="Rectangle_1052_12_" x="244.1" y="132.4" class="st0" width="18.3" height="26.4"/>
<rect id="Rectangle_1053_12_" x="298.2" y="132.4" class="st0" width="18.3" height="26.4"/>
<g id="Rectangle_1054_12_">
	
		<image style="overflow:visible;opacity:0.16;" width="91" height="100" xlink:href="BC933BCB0252F04E.png"  transform="matrix(1 0 0 1 316 102.7)">
	</image>
	<g>
		<rect x="352.3" y="132.4" class="st0" width="18.3" height="26.4"/>
	</g>
</g>
<rect id="Rectangle_1059_12_" x="190" y="78.7" class="st0" width="18.3" height="26.4"/>
<rect id="Rectangle_1060_12_" x="244.1" y="78.7" class="st0" width="18.3" height="26.4"/>
<g id="Rectangle_1061_12_">
	
		<image style="overflow:visible;opacity:0.16;" width="91" height="100" xlink:href="BC933BCB0252F049.png"  transform="matrix(1 0 0 1 262 48.7)">
	</image>
	<g>
		<rect x="298.2" y="78.7" class="st0" width="18.3" height="26.4"/>
	</g>
</g>
<g id="Rectangle_1062_12_">
	
		<image style="overflow:visible;opacity:0.16;" width="91" height="100" xlink:href="BC933BCB0252F04B.png"  transform="matrix(1 0 0 1 316 48.7)">
	</image>
	<g>
		<rect x="352.3" y="78.7" class="st0" width="18.3" height="26.4"/>
	</g>
</g>
<g>
	
		<image style="overflow:visible;opacity:0.16;" width="284" height="340" xlink:href="BC933BCB0252F048.png"  transform="matrix(1 0 0 1 83 90.7)">
	</image>
	<g>
		<rect x="119.4" y="120.3" class="st0" width="211.5" height="266.4"/>
	</g>
</g>
<g id="Rectangle_1043-2_12_">
	
		<image style="overflow:visible;opacity:0.16;" width="91" height="100" xlink:href="BC933BCB0252F056.png"  transform="matrix(1 0 0 1 -7 236.7)">
	</image>
	<g>
		<rect x="29" y="266.6" class="st0" width="18.3" height="26.4"/>
	</g>
</g>
<g id="Rectangle_1044-2_12_">
	
		<image style="overflow:visible;opacity:0.16;" width="91" height="100" xlink:href="BC933BCB0252F059.png"  transform="matrix(1 0 0 1 47 236.7)">
	</image>
	<g>
		<rect x="83.1" y="266.6" class="st0" width="18.3" height="26.4"/>
	</g>
</g>
<rect id="Rectangle_1045-2_12_" x="137.2" y="266.6" class="st0" width="18.3" height="26.4"/>
<rect id="Rectangle_1046-2_12_" x="191.3" y="266.6" class="st0" width="18.3" height="26.4"/>
<g id="Rectangle_1051-2_12_">
	
		<image style="overflow:visible;opacity:0.16;" width="91" height="99" xlink:href="BC933BCB0252F05A.png"  transform="matrix(1 0 0 1 -7 183.7)">
	</image>
	<g>
		<rect x="29" y="212.8" class="st0" width="18.3" height="26.4"/>
	</g>
</g>
<rect id="Rectangle_1052-2_12_" x="83.1" y="212.8" class="st0" width="18.3" height="26.4"/>
<rect id="Rectangle_1053-2_12_" x="137.2" y="212.8" class="st0" width="18.3" height="26.4"/>
<rect id="Rectangle_1054-2_12_" x="191.3" y="212.8" class="st0" width="18.3" height="26.4"/>
<g id="Rectangle_1059-2_12_">
	
		<image style="overflow:visible;opacity:0.16;" width="91" height="99" xlink:href="BC933BCB0252F058.png"  transform="matrix(1 0 0 1 -7 129.7)">
	</image>
	<g>
		<rect x="29" y="159.1" class="st0" width="18.3" height="26.4"/>
	</g>
</g>
<rect id="Rectangle_1060-2_12_" x="83.1" y="159.1" class="st0" width="18.3" height="26.4"/>
<rect id="Rectangle_1061-2_12_" x="137.2" y="159.1" class="st0" width="18.3" height="26.4"/>
<rect id="Rectangle_1062-2_12_" x="191.3" y="159.1" class="st0" width="18.3" height="26.4"/>
<g>
	
		<image style="overflow:visible;opacity:0.16;" width="277" height="305" xlink:href="4147A45755FCBB0D.png"  transform="matrix(1 0 0 1 33 -10.3)">
	</image>
	<g>
		<rect x="69.8" y="19" class="st0" width="203.3" height="232.3"/>
	</g>
</g>
<g id="Path_1510-2">
	
		<image style="overflow:visible;opacity:0.16;" width="147" height="238" xlink:href="4147A45755FCBB03.png"  transform="matrix(1 0 0 1 127 234.7)">
	</image>
	<g>
		<polygon class="st1" points="165.5,264.3 163.1,312.2 167.4,376.6 164.5,429.7 237.2,429.7 234.5,412.1 237.5,346 234.8,296.5 
			237.7,265.3 		"/>
	</g>
</g>
<path id="Path_1511" class="st2" d="M170,278.3l64.2-0.9l-2.6,5L170,278.3z"/>
<path id="Path_1512" class="st2" d="M168.7,318.9l64.2-0.9l-2.5,5L168.7,318.9z"/>
<path id="Path_1513" class="st2" d="M168.3,409.6l64.2-0.8l-2.6,5L168.3,409.6z"/>
<path id="Path_1514" class="st2" d="M168.3,389.3l64.2-0.8l-2.6,5L168.3,389.3z"/>
<path id="Path_1515" class="st2" d="M232.5,378.4l-64.2-0.8l2.5,5L232.5,378.4z"/>
<path id="Path_1516" class="st2" d="M232.9,293.8l-64.2-0.8l2.6,5L232.9,293.8z"/>
<path id="Path_1517" class="st2" d="M232.9,331.2l-64.2-0.8l2.6,5L232.9,331.2z"/>
<path id="Path_1518" class="st2" d="M231.1,352.6l-64.2-0.8l2.5,5L231.1,352.6z"/>
<path id="Path_1519" class="st2" d="M232.9,362.8l-64.2-0.9l2.6,5L232.9,362.8z"/>
<line id="Line_311" class="st3" x1="282.7" y1="367.6" x2="262.4" y2="391"/>
<g>
	
		<image style="overflow:visible;opacity:0.16;" width="149" height="196" xlink:href="4147A45755FCBB05.png"  transform="matrix(1 0 0 1 184 270.7)">
	</image>
	<g>
		<g>
			<path id="Path_1526_12_" class="st4" d="M287.4,404.5l-47.4,0.8l-3-35.8l50.1-0.3"/>
			<path id="Path_1527_12_" class="st5" d="M276,423h-25.5l-0.2-14.6l27,0.3"/>
			<circle id="Ellipse_325_12_" class="st5" cx="255.7" cy="306.3" r="6.1"/>
			
				<rect id="Rectangle_1623_12_" x="255.2" y="305.9" transform="matrix(0.9944 -0.1054 0.1054 0.9944 -32.2848 28.8525)" class="st5" width="3.2" height="28"/>
			<path id="Path_1528_12_" class="st4" d="M293.5,362.1l-59.6,2.9l-5.4-35.6l66.3-2.8"/>
			<circle id="Ellipse_326_12_" class="st6" cx="246.3" cy="350.6" r="6.7"/>
			<circle id="Ellipse_327_12_" class="st6" cx="270.6" cy="348.9" r="6.7"/>
			<path id="Path_1529_12_" class="st7" d="M262.5,392.7c-0.4,0-0.9-0.1-1.2-0.4c-0.7-0.6-0.8-1.7-0.2-2.4l20.3-23.4
				c0.6-0.7,1.7-0.8,2.4-0.2c0.7,0.6,0.8,1.7,0.2,2.4l0,0l-20.3,23.4C263.4,392.5,263,392.7,262.5,392.7z"/>
			<path id="Path_1530_12_" class="st5" d="M296.4,387l-24.1,6.7l-4.1-14l25.5-6.8"/>
			<path id="Path_1531_12_" class="st8" d="M220.4,359.1c0.7-0.8,37-1.6,37-1.6l14.8,54.6l-36.1-2.1L220.4,359.1z"/>
			<path id="Path_1532_12_" class="st5" d="M234.8,395.9l-7.9-0.6l-2.7-14.2l8.4,0.8"/>
		</g>
	</g>
</g>
<line id="Line_312" class="st3" x1="83.2" y1="363.3" x2="101.9" y2="384.8"/>
<g>
	
		<image style="overflow:visible;opacity:0.16;" width="143" height="186" xlink:href="4147A45755FCBB07.png"  transform="matrix(1 0 0 1 34 271.7)">
	</image>
	<g>
		<g>
			<path id="Path_1533_12_" class="st4" d="M79.2,364.8l46.1,0.3l-2.8,32.9l-43.6-0.8"/>
			<path id="Path_1534_12_" class="st5" d="M88.2,401.1l24.9-0.2l-0.2,13.4H89.4"/>
			<circle id="Ellipse_328_12_" class="st5" cx="108.1" cy="306.8" r="5.6"/>
			
				<rect id="Rectangle_1625_12_" x="94.2" y="317.9" transform="matrix(0.1054 -0.9944 0.9944 0.1054 -221.7442 392.1359)" class="st5" width="25.8" height="2.9"/>
			<path id="Path_1535_12_" class="st4" d="M72.1,325.6l61,2.5l-5,32.8l-54.8-2.7"/>
			<circle id="Ellipse_329_12_" class="st6" cx="116.7" cy="347.6" r="6.2"/>
			<circle id="Ellipse_330_12_" class="st6" cx="94.3" cy="346.1" r="6.2"/>
			<path id="Path_1536_12_" class="st7" d="M101.8,386.4c0.4,0,0.8-0.1,1.1-0.4c0.7-0.6,0.7-1.5,0.2-2.2l-18.7-21.5
				c-0.6-0.7-1.5-0.8-2.2-0.2c-0.7,0.6-0.8,1.5-0.2,2.2l18.7,21.5C100.9,386.2,101.4,386.4,101.8,386.4z"/>
			<path id="Path_1537_12_" class="st5" d="M73.1,368.1l23.5,6.4l-3.8,12.8l-22.2-6.1"/>
			<path id="Path_1538_12_" class="st8" d="M140.6,355.5c-0.6-0.8-34.1-1.5-34.1-1.5l-13.6,50.3l33.2-1.9L140.6,355.5z"/>
			<path id="Path_1539_12_" class="st5" d="M129.4,376.5l7.7-0.8l-2.5,13.1l-7.2,0.6"/>
		</g>
	</g>
</g>
<g>
	
		<image style="overflow:visible;opacity:0.16;" width="220" height="360" xlink:href="4147A45755FCBB04.png"  transform="matrix(1 0 0 1 75 36.7)">
	</image>
	<g>
		<g>
			<path id="Path_1520_12_" class="st9" d="M129.1,244.8c-11.8,1.6-24,0.4-14.2,19.2c10.6,20.5,50.3,73.2,52.3,75.9
				c3.4,4.5,6.7-2.4,4.8-5.7c-18.6-31.9-22.9-52.8-31.4-64.4c0,0,30.7-0.8,49.5-1.6c18.7-0.8,16.2-23.4,4.6-24.3
				S129.1,244.8,129.1,244.8z"/>
			<path id="Path_1521_12_" class="st10" d="M150.8,269.5l-6.6,0.3l-4.1,0.2c-0.5-1.2-1.2-2.4-2-3.5c-3.3-4.9,3.4,2.7,10.3,1.9
				C149.3,268.3,153.1,268,150.8,269.5z"/>
			<path id="Path_1522_12_" class="st9" d="M167.6,249.4c0,0-16.3-2.7-25.6-2.4s-6.5,9.9-2.9,15.6c9.5,14.8,46.5,78.3,46.5,75.2
				c0,0,6.8-0.3,3.8-7.8c-14-33.9-17.6-47.4-22.2-61c0,0,9.5-0.7,19.5-0.8"/>
			<path id="Path_1523_12_" class="st10" d="M167.1,269.2c-0.4-1.3-0.9-2.6-1.5-3.9c-2.5-5.7-2.3-6.1,1.6-0.9c3,4.1,2.7,4.7,2.7,4.7
				L167.1,269.2z"/>
			<path id="Path_1524_12_" class="st4" d="M178.6,131.8c-1.4-11-11-37-4-49s23-21,38-14s21,19,22,41s-4,39,0,54s9,25,16,27
				c0,0-32,10-57,5S180.6,147.8,178.6,131.8z"/>
			<path id="Path_1525_12_" class="st9" d="M193.2,139.8c0,0-17.7,6.4-18.1,20.5c-0.4,15.4,1.6,30.6,2,48c0.2,9.5-0.1,20.4,0.9,25.9
				c1.1,5.5,14.5-7.3,14.5-7.3l-3.5-22.6l4-44C193.1,160.3,200.2,151.8,193.2,139.8z"/>
			<path id="Path_1540_12_" class="st9" d="M178.5,98.5c0.7,15.9,8.2,29.9,10.4,30.9c2.3,1,5,0,7.9,0.1c3.7,0.2,6.4,3.4,6.2,7.1v0.1
				l-0.2,2.8c0.1,3.8,1.1,7.9,4.6,9.3c3,1.2,6.4,1.2,9.4-0.2c5.6-2.8,10.3-1.8,6.8-9.9l-3.1-5.8c-1.6-2.9-4.4-15.8-3.3-18.9
				c1.5-4.2,3.1-10.8,1.9-16.9c-3.2-16.3-9.5-24.2-21.8-21.9C184.9,77.5,177.9,82,178.5,98.5z"/>
			<path id="Path_1541_12_" class="st11" d="M202.8,138.7c0,0,0.1,13.7,20.8,0c0,0,3.6,0.4,11.6,3.4c0,0,1.9,11.8,0.4,40.8
				c0.6,4.8,0.5,9.6-0.1,14.3c-1.4,14.7-1,29.5,1.4,44c5,31-28.8,28.8-67.8,27.8c0,0,9.3-20.6-19.1-23c-2.5-0.2-16.6-0.6-19.4-1.2
				c0,0,19.5-4.9,20.4-4.9c1,0,29.6-10.1,29.6-10.1s3.1-28.7,3.1-36.7s-8.7-12.1-1.3-35.3c1.8-5.6,8.4-18.6,10.7-18.6
				C196.3,139.3,199.6,139.2,202.8,138.7z"/>
			<path id="Path_1542_12_" class="st12" d="M185.6,249.8l27-17l-47-6"/>
			<path id="Path_1543_12_" class="st9" d="M197.8,226.2c-0.3,0.1-12.6,1.3-15.8,4.3s-4.1,5.6-1.6,8.5s6.5,5,8.4,2.3
				s5.3-4.4,10.8-6.6C205.1,232.6,201.8,224.5,197.8,226.2z"/>
			<path id="Path_1544_12_" class="st13" d="M117.3,198.1l55.7,1.3l12.6,50.4l-55-5L117.3,198.1z"/>
			<path id="Path_1545_12_" class="st9" d="M236.7,142.9c10.6,4.4,19.9,53.4,20.9,59.4s2.2,12.3-3.8,15.3c-6,3-57,18-57,18l-3-8
				c0,0,42-19,49-20c0,0-6.3-18.9-10-28c0,0-11.3-21.6-8.3-30.6C224.4,148.9,225.6,138.3,236.7,142.9z"/>
			<path id="Path_1546_12_" class="st4" d="M178.6,88.8c0,0,17,30,44,30c0,0,8-16,3-27S190.6,53.8,178.6,88.8z"/>
			<path id="Path_1547_12_" class="st4" d="M182.6,93.8c-2.1,2.8-3.6,6-4.2,9.5c-2.4-2.5-3.4-6.1-2.8-9.5c1.3-6.2,6.7-10.7,13-11
				C194.6,82.8,189.6,89.8,182.6,93.8z"/>
			<path id="Path_1548_12_" class="st11" d="M234.1,141.8c-3.6,0.3-14.3,5.7-1.3,37.7c0,0-5.6,5.9-9.6-0.1s-4-26-1-30
				S227.2,140.2,234.1,141.8z"/>
			<path id="Path_1549_12_" class="st14" d="M183.5,336c0.6,1.9,1,3.8,1.2,5.8c0,2.4-5.7,10.8-2.3,10.6c7.3-0.4,13.1-10.4,14.3-15.4
				c0.6-2.4-7.4-7-7.3-6.5C189.1,333.5,186.6,335.9,183.5,336z"/>
			<path id="Path_1550_12_" class="st14" d="M165.2,337.8c0.2,2,0.2,3.9,0.1,5.9c-0.3,2.4-5.2,9.9-3,9.2c6.4-2.2,13.5-7.6,15.5-12.3
				c1-2.3-6.8-7.5-6.7-7S168.7,339.4,165.2,337.8z"/>
			<path id="Path_1551_12_" class="st10" d="M205.8,126.7c-3.4,1.6-7.1,2.6-10.8,2.7c0,0,4.5-0.3,6.7,2.3
				C201.6,131.7,201.9,129.4,205.8,126.7z"/>
		</g>
	</g>
</g>
</svg>
