<?xml version="1.0" encoding="utf-8"?>
<!-- Generator: Adobe Illustrator 22.0.1, SVG Export Plug-In . SVG Version: 6.00 Build 0)  -->
<svg version="1.1" id="Layer_1" xmlns="http://www.w3.org/2000/svg" xmlns:xlink="http://www.w3.org/1999/xlink" x="0px" y="0px"
	 viewBox="0 0 1004.8 146.2" style="enable-background:new 0 0 1004.8 146.2;" xml:space="preserve">
<style type="text/css">
	.st0{fill:#FFFFFF;}
</style>
<g>
	<g>
		<path class="st0" d="M578,83h-23.5v51.9h-20.3V11.6H578v18.2h-23.5V65H578V83z"/>
		<path class="st0" d="M662.4,122c0,9.4-4.8,13-13.9,13h-26.3c-9.1,0-13.9-3.6-13.9-13V11.6h20.3v105.1h13.6V11.6h20.3L662.4,122
			L662.4,122z"/>
		<path class="st0" d="M748.4,29.9h-17.8V135h-20.3V29.9h-17.6V11.6h55.7L748.4,29.9L748.4,29.9z"/>
		<path class="st0" d="M832.8,122c0,9.4-4.8,13-13.9,13h-26.3c-9.1,0-13.9-3.6-13.9-13V11.6H799v105.1h13.6V11.6h20.2V122z"/>
		<path class="st0" d="M919.1,135h-20.3V89.5h-13.6V135h-20.3V11.6h40.2c9.1,0,13.9,3.7,13.9,13.1v45.5c0,6-2.8,8.8-7.4,10.2v0.5
			c4.5,0.5,7.4,3.2,7.4,9.3L919.1,135L919.1,135z M898.8,71.5V29.9h-13.6v41.6H898.8z"/>
		<path class="st0" d="M1005.5,135h-20.3V89.5h-13.8V135h-20.3V24.8c0-9.4,4.9-13.1,14.1-13.1h26.3c9.1,0,13.9,3.7,13.9,13.1
			L1005.5,135L1005.5,135z M985.2,71.5V29.9h-13.8v41.6H985.2z"/>
	</g>
</g>
<path class="st0" d="M386.6,0v146.3h107.8V0H386.6z M483,134.8h-85V109h48.2V78.6H483V134.8z M483,67.2h-36.8V48.6H483V67.2z
	 M483,37.1h-48.3v60.5H398V11.4h85V37.1z"/>
<g>
	<g>
		<path class="st0" d="M39.2,122c0,9.4-4.8,13-13.9,13H-1v-18.3h20V11.6h20.3L39.2,122L39.2,122z"/>
		<path class="st0" d="M125.4,122c0,9.4-4.8,13-13.9,13H85.2c-9.1,0-13.9-3.6-13.9-13V11.6h20.3v105.1h13.6V11.6h20.3V122H125.4z"/>
		<path class="st0" d="M211.7,135h-20.3V89.5h-13.6V135h-20.3V11.6h40.3c9.1,0,13.9,3.7,13.9,13.1v45.5c0,6-2.8,8.8-7.4,10.2v0.5
			c4.5,0.5,7.4,3.2,7.4,9.3V135z M191.4,71.5V30h-13.6v41.6L191.4,71.5L191.4,71.5z"/>
		<path class="st0" d="M264.1,135h-20.3V11.6h20.3V135z"/>
		<path class="st0" d="M347.1,122.4c0,9.3-4.8,12.7-13.8,12.7h-37.1v-18.2h30.6V83.2h-17.6c-9.4,0-13-4.8-13-13.9V24.8
			c0-9.4,4.8-13.1,13.9-13.1h34v18.2h-27.7v35.2H334c9.4,0,13,4.9,13,14.1v43.1h0.1V122.4z"/>
	</g>
</g>
</svg>
