<?xml version="1.0" encoding="utf-8"?>
<!-- Generator: Adobe Illustrator 22.0.1, SVG Export Plug-In . SVG Version: 6.00 Build 0)  -->
<svg version="1.1" id="Layer_1" xmlns="http://www.w3.org/2000/svg" xmlns:xlink="http://www.w3.org/1999/xlink" x="0px" y="0px"
	 viewBox="0 0 1009.4 151.2" style="enable-background:new 0 0 1009.4 151.2;" xml:space="preserve">
<style type="text/css">
	.st0{fill:#FFFFFF;}
</style>
<g>
	<g>
		<path class="st0" d="M580,85.5h-23.5v51.9h-20.3V14.1H580v18.2h-23.5v35.2H580V85.5z"/>
		<path class="st0" d="M664.4,124.5c0,9.4-4.8,13-13.9,13h-26.3c-9.1,0-13.9-3.6-13.9-13V14.1h20.3v105.1h13.6V14.1h20.3
			L664.4,124.5L664.4,124.5z"/>
		<path class="st0" d="M750.4,32.4h-17.8v105.1h-20.3V32.4h-17.6V14.1h55.7L750.4,32.4L750.4,32.4z"/>
		<path class="st0" d="M834.8,124.5c0,9.4-4.8,13-13.9,13h-26.3c-9.1,0-13.9-3.6-13.9-13V14.1H801v105.1h13.6V14.1h20.2V124.5z"/>
		<path class="st0" d="M921.1,137.5h-20.3V92h-13.6v45.5h-20.3V14.1h40.2c9.1,0,13.9,3.7,13.9,13.1v45.5c0,6-2.8,8.8-7.4,10.2v0.5
			c4.5,0.5,7.4,3.2,7.4,9.3L921.1,137.5L921.1,137.5z M900.8,74V32.4h-13.6V74H900.8z"/>
		<path class="st0" d="M1007.5,137.5h-20.3V92h-13.8v45.5h-20.3V27.3c0-9.4,4.9-13.1,14.1-13.1h26.3c9.1,0,13.9,3.7,13.9,13.1
			L1007.5,137.5L1007.5,137.5z M987.2,74V32.4h-13.8V74H987.2z"/>
	</g>
</g>
<g>
	<rect x="449.2" y="46.2" class="st0" width="43.8" height="22.1"/>
	<polygon class="st0" points="435.6,104.5 435.6,32.6 493,32.6 493,2 392,2 392,104.5 	"/>
	<polygon class="st0" points="449.2,81.9 449.2,118.1 392,118.1 392,148.7 493,148.7 493,81.9 	"/>
</g>
<g>
	<g>
		<path class="st0" d="M41.2,124.5c0,9.4-4.8,13-13.9,13H1v-18.3h20V14.1h20.3L41.2,124.5L41.2,124.5z"/>
		<path class="st0" d="M127.4,124.5c0,9.4-4.8,13-13.9,13H87.2c-9.1,0-13.9-3.6-13.9-13V14.1h20.3v105.1h13.6V14.1h20.3v110.4H127.4
			z"/>
		<path class="st0" d="M213.7,137.5h-20.3V92h-13.6v45.5h-20.3V14.1h40.3c9.1,0,13.9,3.7,13.9,13.1v45.5c0,6-2.8,8.8-7.4,10.2v0.5
			c4.5,0.5,7.4,3.2,7.4,9.3V137.5z M193.4,74V32.4h-13.6V74H193.4z"/>
		<path class="st0" d="M266.1,137.5h-20.3V14.1h20.3V137.5z"/>
		<path class="st0" d="M349.1,124.8c0,9.3-4.8,12.7-13.8,12.7h-37.1v-18.2h30.6V85.6h-17.6c-9.4,0-13-4.8-13-13.9V27.3
			c0-9.4,4.8-13.1,13.9-13.1h34v18.2h-27.7v35.2H336c9.4,0,13,4.9,13,14.1v43.1H349.1z"/>
	</g>
</g>
</svg>
