<?xml version="1.0" encoding="utf-8"?>
<!-- Generator: Adobe Illustrator 23.1.1, SVG Export Plug-In . SVG Version: 6.00 Build 0)  -->
<svg version="1.1" id="Layer_1" xmlns="http://www.w3.org/2000/svg" xmlns:xlink="http://www.w3.org/1999/xlink" x="0px" y="0px"
	 width="626.7px" height="397.7px" viewBox="0 0 626.7 397.7" style="enable-background:new 0 0 626.7 397.7;" xml:space="preserve"
	>
<style type="text/css">
	.st0{fill:#EFF0F7;}
	.st1{fill:#5E4B63;}
	.st2{fill:#594B5D;}
	.st3{fill:#524257;}
	.st4{fill:#82BBF5;}
	.st5{fill:#DB9A7D;}
	.st6{fill:#E6C97B;}
	.st7{fill:#C68A73;}
	.st8{fill:#69536F;}
	.st9{fill:#F9B2B2;}
	.st10{fill:#FFFFFF;}
	.st11{fill:#E8E8E8;}
	.st12{fill:#E5888A;}
	.st13{fill:#C95557;}
	.st14{fill:#85B9D9;}
	.st15{fill:#EAA9A9;}
	.st16{fill:#EDABA2;}
	.st17{fill:#EBD494;}
	.st18{fill:#F15C5E;}
	.st19{fill:#DBBA72;}
	.st20{fill:#D95C5E;}
</style>
<g id="Group_222" transform="translate(-646.304 -205.356)">
	<g id="Group_213" transform="translate(646.304 312.518)">
		<g id="Group_134" transform="translate(144.049 122.512)">
			<path id="Path_299" class="st0" d="M69.9,100c9.9-2.9,19.6-8.1,26.4-16.2c-59.9-26.2-18.2-18.3,7-12.5c0.6-1.9,1.1-3.8,1.5-5.7
				c0.5-2.5,1.1-4.9,1.8-7.3c-46.5-12.4-18.1-11.6,3.4-10c0.7-1.7,1.3-3.4,2-5.1c-42.9-9.2-18.5-9.9,3.8-9.3c1-2.7,2-5.2,2.7-7.7
				c-38.2,4.5-19.1-4.6,1.4-12.2c-0.3-2.2-1.2-4.3-2.5-6.1c-2.1-2.9-6.3-4.4-12-4.7c-10,15.2-20.6,28.7-10.1,0.5
				C89.1,4.4,83,5.8,77.1,7.7c3.5,14.6,4.3,25-8.1,2.9c-1.8,0.7-3.6,1.5-5.4,2.3c4,20.7,7.4,45.5-8.3,4.2c-5,2.7-9.6,6.1-13.7,9.9
				c7.3,18.6,13.9,39.4-6.8,7.7c-2,2.7-3.8,5.7-5.3,8.7c9,16.3,16.8,33.1-4,9.8c-1,3.1-1.8,6.2-2.5,9.4c-1.4,6.6,0.2,12.2,5,17.8
				c-1.7-0.9,3.9,2.9,3.9,2.9c1.5,2.5,0.5,3.3,0.5,3.3S14.1,107,5.7,121.3s5.1,4,5.1,4s2.4-12.1,24.7-35.8c1-1,1.5-1.6,2.3-0.6
				c2.2,2.4,3.2,3.4,3.5,3.7c6,6.1,11.9,10.4,16.7,9.9c0.9-0.1,1.8-0.2,2.6-0.4C43.8,79.8,56,88.3,69.9,100z"/>
			<path id="Path_300" class="st0" d="M105.4,3c5.6,0.3,9.9,1.8,12,4.7c1.3,1.8,2.2,3.9,2.5,6.1c-16.7,6.3-32.5,13.4-17,13.4
				c5.2-0.1,10.5-0.5,15.7-1.2c-0.7,2.5-1.7,5-2.7,7.7c-3.6-0.1-7.3-0.2-10.7-0.2c-17.7,0-29,1.8,6.9,9.5c-0.7,1.7-1.4,3.4-2,5.1
				c-6.4-0.5-13.5-0.9-18.9-0.9c-12.9,0-17.1,2.2,15.5,10.9c-0.7,2.4-1.3,4.8-1.8,7.3c-0.4,1.9-0.9,3.8-1.5,5.7
				c-11.7-2.7-26.9-5.8-33.9-5.8c-8.2,0-5.3,4.2,26.9,18.3C89.5,92,79.8,97.2,69.9,100c-7.6-6.4-14.7-11.8-16.8-11.8
				c-1.8,0-0.1,3.8,7.5,13.9c-0.9,0.1-1.8,0.3-2.6,0.4c-0.3,0-0.6,0.1-0.8,0c-4.6,0-10.2-4.2-15.9-9.9c-0.3-0.2-1.3-1.3-3.5-3.7
				c-0.2-0.3-0.5-0.4-0.8-0.5c-0.4,0-0.9,0.5-1.5,1.1c-22.2,23.7-24.7,35.8-24.7,35.8s-4.7,3.6-6.8,3.6c-1.5,0-1.7-1.7,1.7-7.6
				C14,107,32.3,86.6,32.3,86.6s1.1-0.9-0.5-3.3c0,0-4.4-3-4.2-3c0.1,0,0.2,0.1,0.3,0.1c-4.8-5.6-6.4-11.2-5-17.8
				c0.7-3.2,1.5-6.3,2.5-9.4c7.4,8.2,11.1,11.4,12.5,11.4c2.6,0-2.7-10.7-8.6-21.3c1.5-3.1,3.3-6,5.3-8.7
				C42.6,46.6,46.5,51.1,48,51.1c2.5,0-1.8-12.5-6.4-24.1c4.2-3.9,8.8-7.2,13.7-9.9c6.2,16.3,9.4,22.3,10.8,22.3
				c2.1,0-0.1-14-2.5-26.5c1.8-0.8,3.6-1.6,5.4-2.3c5.2,9.2,8,12.7,9.4,12.7c1.9,0,0.8-7.1-1.2-15.7c5.9-1.9,12-3.3,18.1-4.2
				c-4.4,12-5.1,16.5-3.6,16.5C93.7,20,99.6,11.8,105.4,3 M99.7,0l-4.8,0.6c-6.3,0.9-12.6,2.3-18.6,4.3l-2.6,0.8l0.6,2.6
				c0.9,3.6,1.4,6.3,1.7,8.3c-1.1-1.7-2.6-4.1-4.5-7.4L70.3,7l-2.4,0.9c-1.9,0.8-3.8,1.5-5.5,2.3l-2.1,0.9l0.4,2.3
				c1.4,7.2,2.2,12.3,2.7,15.9c-1.3-3.1-3.1-7.3-5.4-13.3l-1.2-3.2l-3,1.7c-5.2,2.9-10,6.3-14.3,10.3l-1.4,1.4l0.7,1.8
				c2.8,7.2,4.5,12.1,5.5,15.3c-1.7-2.3-4-5.5-7.2-10.3l-2.3-3.5l-2.5,3.4c-2.1,2.9-4,5.9-5.6,9.1l-0.7,1.4l0.7,1.3
				c3.2,5.9,5.3,9.9,6.6,12.8c-1.5-1.5-3.4-3.5-5.9-6.3l-3.4-3.8l-1.6,4.8c-1,3.2-1.9,6.4-2.6,9.7c-1.5,7.1,0,13.2,4.7,19.2
				c0.4,1,1.5,1.8,3.1,2.9c0.6,0.4,1.2,0.9,1.7,1.2c-3.1,3.6-18.7,21.4-26.4,34.6c-3.1,5.3-3.8,8-2.6,10.1c0.7,1.2,2,1.9,3.4,1.9
				c2.7,0,6.6-2.6,8.6-4.2l0.9-0.7l0.2-1.1c0-0.1,2.7-11.6,23.2-33.6c0.8,0.9,1.5,1.7,2.4,2.5c7.2,7.3,12.9,10.7,17.8,10.7
				c0.4,0,0.8,0,1.2-0.1c0.8-0.1,1.7-0.2,2.8-0.4l4.8-0.7l-2.9-3.9c-1.6-2.1-2.8-3.8-3.8-5.2c2.2,1.6,5,3.9,8.9,7.2l1.2,1l1.5-0.4
				c11.7-3.4,21.3-9.3,27.8-17.1l2.5-3l-3.6-1.6c-15-6.6-22.3-10.4-25.9-12.7c6,0.4,16.6,2.3,31.1,5.6l2.6,0.6l0.8-2.5
				c0.7-2,1.2-4,1.6-6.1c0.4-2.2,1-4.5,1.7-7l0.8-2.9l-2.9-0.8c-8.5-2.3-14-4-17.4-5.2c0.4,0,0.8,0,1.2,0c4.6,0,10.9,0.3,18.7,0.9
				l2.2,0.2l0.8-2c0.6-1.5,1.2-3,2-5l1.3-3.2l-3.4-0.7c-6.9-1.5-11.7-2.7-14.9-3.6c1.9-0.1,4.4-0.1,7.4-0.1c3.1,0,6.7,0.1,10.6,0.2
				l2,0.1l0.7-1.9c1.2-3.1,2.1-5.6,2.8-8l1.3-4.2l-4.4,0.5c-5.1,0.7-10.2,1.1-15.3,1.2h-0.2c2.9-1.6,8.3-4.1,18.3-7.8l2.2-0.8
				l-0.4-2.4c-0.4-2.7-1.5-5.2-3.1-7.4c-2.5-3.5-7.3-5.5-14.1-5.9L103.8,0l-0.9,1.4c-3.4,5.1-5.8,8.6-7.6,10.9
				c0.6-2,1.5-4.5,2.7-7.8L99.7,0L99.7,0z"/>
		</g>
		<g id="Group_135" transform="translate(0 108.546)">
			<path id="Path_301" class="st0" d="M38.2,95.4c0,0,42-18.7,36.4-26C71.3,65.2,30.1,80,30.1,80c-1.6,0.5-3.1,0.6-3.2,0.1l-0.1-0.4
				c-1.1-3.9-3-8.6-3-8.6c-0.6-1.6,0.1-3.4,1.7-4c0,0,34.5-11.2,31.9-15.6c-2-3.3-37.7,3.5-37.7,3.5c-1.7,0.3-3.2,0.1-3.4-0.3
				s0.5-2,2.1-2.6c0,0,24.3-8.6,25.1-10.4c1.4-3.1-30.7,0.1-30.7,0.1c-1.8,0.1-3.5-0.9-4.4-2.5l-1.6-3.5c-0.5-0.9-0.2-2.1,0.7-2.7
				c0.3-0.2,0.7-0.3,1.1-0.3c0,0,24.6-0.8,23.7-3.1C31.1,26.7,5.4,19,5.4,19c-1.7-0.5-2.7-2.2-2.4-3.9c0.4-1.7,1-3.3,1.9-4.8
				C7,6.6,16,4.1,16,4.1c1.8-0.4,3.7,0.2,4.9,1.5c0,0,13.9,17.1,16.6,16.8c4.7-0.5-4.9-16.9-4.9-16.9c-0.5-0.8-0.3-1.9,0.6-2.4
				c0.4-0.3,0.9-0.3,1.3-0.2L50.2,5c1.7,0.3,2.8,1.9,2.6,3.6c0,0-3.7,19.5-1.3,21.6c3.8,3.3,12.2-18.8,12.2-18.8
				c0.8-1.5,2.3-2.5,3.4-2.1s3.9,2.7,3.8,4.4c0,0-2.5,27.7-0.3,29.5c4.2,3.5,10.2-25.4,10.2-25.4c0.4-1.4,1.8-2.2,3.2-1.8
				c0.2,0.1,0.4,0.1,0.5,0.2L95,22.1c1.5,1,2.2,2.9,1.8,4.6c0,0-8.3,29.2-6.8,32.6c1.1,2.7,16.5-23.9,16.5-23.9c0.4-1,1.6-1.5,2.6-1
				c0.4,0.2,0.7,0.4,0.9,0.7l4.3,11c0.9,1.7,1.1,3.6,0.5,5.4c0,0-12.3,25.3-9.6,27.7c5.6,5.1,15-15,15-15c1.1-1.3,2.4-1.1,3,0.5
				c0,0,0.7,1.8,1.5,4.3c2.5,8-4.1,19.1-8.8,25.8c-0.2,1.1,0.1,2.2,1,3c2.4,2.1,18.7,16.8,20.7,27.3l-3.8,3.2c0,0-3-14-19.2-27.1
				c-0.8-0.9-2.2-1.1-3.1-0.3c-7.6,10.1-13.2,15.7-20.2,15.5l-0.9,0c-1,0-1.1-1.3-0.2-2.7c0,0,12.9-16.6,7.5-17.3
				c-2.8-0.4-20.1,16.1-20.1,16.1c-1.3,1.2-3.2,1.8-5,1.5c-1.5-0.4-4.6-2.5-3.4-3.8c0,0,13.6-14.6,12.5-15.4
				c-4.1-2.9-26,14.4-26,14.4c-1.6,0.9-3.6,0.9-5.2-0.1L37.7,99.1c-1-0.8-1.1-2.3-0.2-3.2C37.7,95.7,37.9,95.5,38.2,95.4z"/>
			<path id="Path_302" class="st0" d="M34.2,2.9c0.1,0,0.2,0,0.3,0L50.2,5c1.7,0.3,2.8,1.9,2.6,3.6c0,0-3.7,19.5-1.3,21.6
				c0.2,0.2,0.5,0.3,0.8,0.3c4.1,0,11.3-19.2,11.3-19.2c0.5-1.2,1.6-2,2.9-2.2c0.2,0,0.3,0,0.5,0.1c1.1,0.3,3.9,2.7,3.8,4.4
				c0,0-2.5,27.7-0.3,29.5c0.2,0.2,0.5,0.3,0.7,0.3c4.1,0,9.5-25.7,9.5-25.7c0.3-1.1,1.3-1.8,2.4-1.9c0.4,0,0.9,0.1,1.3,0.3L95,22.1
				c1.5,1,2.2,2.9,1.8,4.6c0,0-8.3,29.2-6.8,32.6c0,0.1,0.1,0.2,0.3,0.2c2.3,0,16.2-24,16.2-24c0.3-0.7,1-1.2,1.8-1.2
				c0.7,0,1.3,0.4,1.7,0.9l4.3,11c0.9,1.7,1.1,3.6,0.5,5.4c0,0-12.3,25.3-9.6,27.7c0.5,0.5,1.3,0.8,2,0.8c5.6,0,13-15.8,13-15.8
				c0.3-0.5,0.9-0.8,1.5-0.9c0.6,0,1.2,0.5,1.5,1.4c0,0,0.7,1.8,1.5,4.3c2.5,8-4.1,19.1-8.8,25.8c-0.2,1.1,0.1,2.2,1,3
				c2.4,2.1,18.7,16.8,20.7,27.3l-3.8,3.2c0,0-3-14-19.2-27.1c-0.4-0.5-1-0.8-1.6-0.8c-0.5,0-1,0.2-1.5,0.4
				c-7.5,9.9-13.1,15.5-19.9,15.5c-0.1,0-0.2,0-0.3,0l-0.9,0c-1,0-1.1-1.3-0.2-2.7c0,0,12.9-16.6,7.5-17.3c0,0-0.1,0-0.1,0
				c-3.1,0-20.1,16.1-20.1,16.1c-1.1,1-2.6,1.6-4.1,1.6c-0.3,0-0.6,0-0.9-0.1c-1.5-0.4-4.6-2.5-3.4-3.8c0,0,13.6-14.6,12.5-15.4
				c-0.4-0.2-0.8-0.4-1.3-0.3c-6.1,0-24.8,14.7-24.8,14.7c-0.8,0.4-1.7,0.7-2.6,0.7c-0.9,0-1.9-0.2-2.7-0.7L37.7,99.1
				c-1-0.8-1.1-2.3-0.2-3.2c0.2-0.2,0.4-0.4,0.7-0.5c0,0,42-18.7,36.4-26c-0.4-0.5-1.4-0.7-2.8-0.7c-10,0-41.7,11.4-41.7,11.4
				c-0.7,0.3-1.5,0.4-2.3,0.4c-0.5,0-0.8-0.1-0.9-0.3l-0.1-0.4c-1.1-3.9-3-8.6-3-8.6c-0.6-1.6,0.1-3.4,1.7-4
				c0,0,34.5-11.2,31.9-15.6c-0.4-0.7-2.1-0.9-4.6-0.9c-10.1,0-33.2,4.4-33.2,4.4c-0.6,0.1-1.1,0.1-1.7,0.1c-0.9,0-1.6-0.2-1.8-0.4
				c-0.2-0.4,0.5-2,2.1-2.6c0,0,24.3-8.6,25.1-10.4c0.5-1-2.6-1.3-6.9-1.3c-9.1,0-23.7,1.5-23.7,1.5c-0.1,0-0.2,0-0.4,0
				c-1.7,0-3.2-1-4.1-2.5l-1.6-3.5c-0.5-0.9-0.2-2.1,0.7-2.7c0.3-0.2,0.7-0.3,1.1-0.3c0,0,24.6-0.8,23.7-3.1
				C31.1,26.7,5.4,19,5.4,19c-1.7-0.5-2.7-2.2-2.4-3.9c0.4-1.7,1-3.3,1.9-4.8C7,6.6,16,4.1,16,4.1c0.4-0.1,0.7-0.1,1.1-0.1
				c1.5,0,2.9,0.6,3.9,1.7c0,0,13.7,16.8,16.5,16.8c0,0,0,0,0.1,0c4.7-0.5-4.9-16.9-4.9-16.9C31.9,4,32.7,2.9,34.2,2.9 M34.2,0
				c-1.6-0.1-3.1,0.7-4,2c-0.9,1.4-1,3.1-0.3,4.6l0.1,0.2L30,7c1.9,3.2,3.5,6.5,4.9,10c-3.2-3.1-7.8-8.4-11.7-13.2
				C21.6,2,19.4,1,17.1,1c-0.6,0-1.3,0.1-1.9,0.2C13.5,1.7,5,4.3,2.3,8.9c-1.1,1.8-1.8,3.7-2.2,5.7c-0.5,3.2,1.4,6.3,4.5,7.2
				c7.3,2.2,15.4,4.9,20.5,7c-4.5,0.5-10.9,0.9-16.6,1.1c-2.7,0-4.9,2.1-4.9,4.8c0,0.8,0.2,1.5,0.5,2.2l1.6,3.6l0,0l0,0
				c1.3,2.5,3.9,4.1,6.7,4.1c0.2,0,0.4,0,0.6,0c0.1,0,11.7-1.2,20.4-1.4c-4.6,1.9-10.7,4.1-16.1,6c-1.7,0.6-3.1,1.9-3.8,3.6
				c-0.4,1-0.4,2.1,0,3.1c1,2,3.5,2,4.3,2c0.7,0,1.4-0.1,2.2-0.2l0,0l0,0c0.2,0,21.2-4,31.5-4.3c-5.5,3-16.9,7.5-27,10.8l-0.1,0
				l-0.1,0c-3.1,1.3-4.5,4.7-3.3,7.8c0,0,1.8,4.6,2.9,8.3l0.1,0.4l0,0.1l0,0.1c0.5,1.5,2.1,2.5,3.7,2.3c1.1,0,2.2-0.2,3.2-0.6l0.1,0
				l0.1,0c8.7-3.1,32.9-11.2,40.7-11.2h0.1C71,73,67.7,76.7,54.9,83.8c-8.9,4.9-17.9,8.9-17.9,9l-0.2,0.1l-0.2,0.1
				c-2.5,1.4-3.4,4.6-2,7.1c0.3,0.5,0.6,0.9,1,1.2l0.1,0.1l0.1,0.1l12.4,10.1l0.1,0.1l0.1,0.1c2.6,1.5,5.7,1.6,8.3,0.1l0.1-0.1
				l0.1-0.1c5.5-4.3,11.2-8.3,17.3-11.8c-2.2,2.6-5.1,5.7-7.6,8.5c-1,1-1.3,2.5-0.9,3.8c0.8,2.6,4.1,4.4,5.7,4.8
				c0.5,0.1,1,0.2,1.5,0.2c2.3,0,4.5-0.9,6.1-2.5c5.3-5,11.5-10.5,15.3-13.4c-2,3.8-4.4,7.3-7,10.7l-0.1,0.1l-0.1,0.2
				c-1.1,1.5-1.3,3.5-0.5,5.2c0.6,1.1,1.8,1.9,3.1,1.9l1,0c0.1,0,0.3,0,0.4,0c7.7,0,13.8-5.7,21.4-15.6c5.9,4.7,10.9,10.5,14.6,17.1
				c1.5,2.5,2.6,5.3,3.4,8.1l1,4.7l3.7-3.1l3.8-3.2l1.3-1.1l-0.3-1.7c-0.7-3.5-4.1-13.4-21.6-28.9c7.8-11.5,10.8-20.8,8.6-27.5
				c-0.8-2.6-1.5-4.4-1.5-4.5c-0.6-1.9-2.3-3.2-4.3-3.3c-1.5,0-2.9,0.7-3.7,1.9l-0.2,0.3l-0.2,0.3c-3.4,7.2-7.7,12.9-9.8,14
				c0.7-4,5.2-15,9.6-24.1l0-0.1l0-0.1c1-2.6,0.8-5.5-0.5-7.9l-4.2-10.8l-0.2-0.4l-0.3-0.4c-1.6-2.2-4.7-2.6-6.9-1
				c-0.6,0.4-1.1,1-1.4,1.7c-3.3,5.7-7.1,11.9-10.1,16.4c1.3-6.3,3.5-15.1,5.8-23c0.8-3-0.4-6.2-3-7.9l-0.1,0l-0.1,0L86,13.6l-0.1,0
				l-0.1,0c-0.8-0.4-1.7-0.6-2.6-0.6c-2.4,0-4.5,1.6-5.2,3.9l0,0.1l0,0.2c-1.3,6.6-3.1,13.1-5.4,19.4c0-5.6,0.5-14.6,1.2-22.6
				c0.3-3.6-4-6.9-5.8-7.4c-0.4-0.1-0.9-0.2-1.3-0.2c-2.4,0.2-4.5,1.6-5.5,3.8l-0.1,0.1L61,10.4c-2,5.3-4.4,10.5-7.4,15.3
				c0.3-5.6,1-11.1,2.1-16.5l0-0.1l0-0.1c0.4-3.3-1.8-6.3-5-6.9l-0.1,0l-0.1,0L34.8,0l-0.1,0h-0.1C34.5,0,34.3,0,34.2,0L34.2,0z"/>
		</g>
		<g id="Group_136" transform="translate(61.539)">
			<path id="Path_303" class="st0" d="M6.7,120.1c0,0,59.6,17.4,60.2,5.1c0.3-7.2-55.1-27.9-55.1-27.9c-2.1-0.9-3.6-2.1-3.4-2.7
				L8.6,94c2.3-5,4.5-11.5,4.5-11.5c0.8-2.2,3.1-3.4,5.3-2.6c0,0,45.3,18.6,46.4,11.8c0.9-5.2-41.9-29.4-41.9-29.4
				c-2-1.2-3.4-2.7-3.3-3.3s2.3-1.6,4.4-0.8c0,0,32.5,12.4,35,11.2c4.2-2-31.7-26.7-31.7-26.7c-2-1.5-2.9-4-2.4-6.4l1.4-5.1
				c0.3-1.4,1.6-2.4,3-2.1c0.5,0.1,1,0.4,1.4,0.7c0,0,26,20.7,27.2,17.5c1.5-4.1-18.3-34.5-18.3-34.5c-1.2-2-0.8-4.6,0.9-6.2
				c1.8-1.4,3.9-2.5,6.1-3.3c5.6-2,17,3.3,17,3.3c2.2,1.2,3.6,3.4,3.8,5.9c0,0-0.6,29.8,2.3,31.8c5.2,3.6,9.7-21.7,9.7-21.7
				c0.7-2.2,2.6-2.6,4.2-1l14.4,16c1.5,1.8,1.3,4.4-0.4,6c0,0-20.8,16.9-20.2,21.1c1,6.7,29-8.8,29-8.8c2.1-0.9,4.5-0.5,5.4,0.8
				s1.7,6.2,0.1,7.9c0,0-26.8,26.4-26.1,30.1c1.3,7.3,32.8-17.2,32.8-17.2c1.6-1.1,3.8-0.6,4.8,1c0.1,0.2,0.3,0.4,0.4,0.7l5.6,15.2
				c0.6,2.4-0.3,4.9-2.2,6.3c0,0-34.1,22.9-35.6,27.7c-1.2,3.7,37.8-10.2,37.8-10.2c1.3-0.7,3-0.1,3.6,1.3c0.2,0.5,0.3,1,0.3,1.5
				l-5.2,15.1c-0.5,2.5-2,4.7-4.3,6c0,0-34.7,15.3-34.1,20.1c1.3,10.2,28.6-2.3,28.6-2.3c2.3-0.4,3.4,1,2.7,3.2c0,0-0.9,2.5-2.3,5.7
				c-4.4,10.4-20.9,16.1-31.6,18.9c-1.2,0.9-1.8,2.4-1.6,3.9c0.6,4.3,4.7,33.6-2.5,46.2H76c0,0,9.1-17,3.8-44.7c0,0,0.2-2.5-2.9-3.1
				c-16.7,3.7-27.3,4.6-34.3-1.7l-0.9-0.8c-1-0.9,0-2.3,2.2-3c0,0,27.8-5.9,22.9-11.3c-2.6-2.8-34.8-1-34.8-1
				c-2.5,0.1-4.8-0.9-6.4-2.7c-1.3-1.7-2.5-6.6-0.2-6.9c0,0,26.8-3.1,26.3-4.9c-1.7-6.6-39.4-8-39.4-8c-2.5-0.5-4.5-2.3-5.3-4.6
				l-3.9-21.3c-0.3-1.7,0.9-3.3,2.6-3.5C5.9,120,6.3,120,6.7,120.1z"/>
			<path id="Path_304" class="st0" d="M49.7,2.9c5.9,0,13.9,3.7,13.9,3.7c2.2,1.2,3.6,3.4,3.8,5.9c0,0-0.6,29.8,2.3,31.8
				c0.3,0.2,0.7,0.3,1,0.3c4.8,0,8.6-22.1,8.6-22.1c0.2-1.1,1.1-1.9,2.2-2c0.8,0,1.5,0.4,2,1l14.4,16c1.5,1.8,1.3,4.4-0.4,6
				c0,0-20.8,16.9-20.2,21.1c0.2,1.2,1.2,1.7,2.8,1.7c7.3,0,26.2-10.4,26.2-10.4c0.8-0.3,1.6-0.5,2.4-0.5c1.1-0.1,2.3,0.4,3,1.3
				c0.9,1.3,1.7,6.2,0.1,7.9c0,0-26.8,26.4-26.1,30.1c0.2,0.9,0.8,1.3,1.9,1.3c7,0,30.9-18.6,30.9-18.6c0.6-0.4,1.3-0.6,2-0.6
				c1.4,0,2.7,0.9,3.2,2.2l5.6,15.2c0.6,2.4-0.3,4.9-2.2,6.3c0,0-34.1,22.9-35.6,27.7c-0.1,0.4,0.3,0.6,1.1,0.6
				c6.4,0,36.7-10.8,36.7-10.8c0.4-0.1,0.8-0.2,1.2-0.2c1.5,0,2.7,1.2,2.7,2.7c0,0.1,0,0.2,0,0.3l-5.2,15.1c-0.5,2.5-2,4.7-4.3,6
				c0,0-34.7,15.3-34.1,20.1c0.4,3,2.9,4,6.4,4c8.4,0,22.2-6.3,22.2-6.3c0.2,0,0.5-0.1,0.7-0.1c1.8,0,2.6,1.3,1.9,3.2
				c0,0-0.9,2.5-2.3,5.7c-4.4,10.4-20.9,16.1-31.6,18.9c-1.2,0.9-1.8,2.4-1.6,3.9c0.6,4.3,4.7,33.6-2.5,46.2H76c0,0,9.1-17,3.8-44.7
				c0,0,0.2-2.5-2.9-3.1c-8,1.8-14.6,2.9-20.1,2.9c-6,0-10.6-1.3-14.2-4.6l-0.9-0.8c-1-0.9,0-2.3,2.2-3c0,0,27.8-5.9,22.9-11.3
				c-1.1-1.2-8-1.6-15.3-1.6c-9.4,0-19.6,0.6-19.6,0.6c-0.2,0-0.3,0-0.5,0c-2.3,0-4.5-1-6-2.8c-1.3-1.7-2.5-6.6-0.2-6.9
				c0,0,26.8-3.1,26.3-4.9c-1.7-6.6-39.4-8-39.4-8c-2.5-0.5-4.5-2.3-5.3-4.6l-3.9-21.3c-0.3-1.7,0.9-3.2,2.5-3.5c0.2,0,0.4,0,0.6,0
				c0.2,0,0.4,0,0.6,0.1c0,0,32.5,9.5,49.7,9.5c6.1,0,10.3-1.2,10.4-4.4c0.3-7.2-55.1-27.9-55.1-27.9c-2.1-0.9-3.6-2.1-3.4-2.7
				L8.6,94c2.3-5,4.5-11.5,4.5-11.5c0.6-1.7,2.2-2.9,4-2.9c0.4,0,0.9,0.1,1.3,0.2c0,0,32.4,13.3,43.1,13.3c2,0,3.2-0.4,3.4-1.5
				c0.9-5.2-41.9-29.4-41.9-29.4c-2-1.2-3.4-2.7-3.3-3.3c0.1-0.5,1.3-1.1,2.7-1.1c0.6,0,1.1,0.1,1.7,0.3c0,0,29.6,11.3,34.5,11.3
				c0.2,0,0.4,0,0.5-0.1c4.2-2-31.7-26.7-31.7-26.7c-2-1.5-2.9-4-2.4-6.4l1.4-5.1c0.2-1.2,1.3-2.1,2.5-2.2c0.7,0,1.4,0.3,2,0.8
				c0,0,22.4,17.8,26.6,17.8c0.3,0,0.5-0.1,0.6-0.3c1.5-4.1-18.3-34.5-18.3-34.5c-1.2-2-0.8-4.6,0.9-6.2c1.8-1.4,3.9-2.5,6.1-3.3
				C47.7,3,48.7,2.9,49.7,2.9 M49.7,0c-1.4,0-2.7,0.2-4,0.6c-2.5,0.9-4.9,2.1-7,3.8c-2.9,2.5-3.6,6.7-1.5,10
				c6.7,10.2,13.7,22.2,16.6,28.5c-7.3-4.8-14.4-9.9-21.2-15.4c-1.1-0.9-2.4-1.4-3.8-1.4c-2.5,0.1-4.7,1.8-5.3,4.2l-1.4,5.1l0,0l0,0
				c-0.8,3.6,0.6,7.3,3.6,9.5c9.8,6.7,20.6,14.7,26.5,19.8c-6.7-2.1-17.4-5.8-27-9.5c-0.9-0.3-1.8-0.5-2.7-0.5
				c-2.4,0-5.1,1.2-5.6,3.4c-0.6,2.7,2.2,5,4.6,6.5l0,0l0,0c15.9,9,33.7,20.4,39,25.4c-9.1-0.6-32.5-9.5-41-13l-0.1,0l-0.1,0
				c-3.7-1.2-7.7,0.8-9,4.5c0,0.1-2.2,6.4-4.4,11.2l-0.2,0.5l0,0.1l0,0.1c-0.6,1.4-0.7,4.1,5,6.5l0.1,0l0.1,0
				c27,10.1,50.5,21.3,53.1,25.3c-0.4,0.6-2.5,1.4-7.4,1.4c-16.6,0-48.6-9.3-48.9-9.4l-0.2-0.1l-0.2,0c-0.4-0.1-0.7-0.1-1.1-0.1
				c-1.7,0-3.3,0.7-4.5,1.9c-1.2,1.3-1.7,3.1-1.5,4.8l0,0.1l0,0.1L4,145.4l0,0.2l0,0.2c1.2,3.4,4.1,6,7.7,6.6l0.2,0l0.2,0
				c13.8,0.5,26.8,2.2,33.1,4.2c-5,1-13.1,2.1-20.2,2.9c-1.5,0.2-2.8,1.1-3.4,2.6c-1.2,2.8,0.2,7,1.6,9c2.1,2.5,5.1,3.9,8.3,3.9
				c0.2,0,0.5,0,0.7,0c0.7,0,10.4-0.6,19.4-0.6c4-0.1,7.9,0.1,11.8,0.6c-3.2,2-11.5,4.7-20.1,6.5l-0.2,0l-0.2,0.1
				c-2.4,0.8-4,2.4-4.4,4.2c-0.3,1.4,0.2,2.8,1.2,3.8l0.9,0.8c4.1,3.6,9.2,5.3,16.2,5.3c5,0,11-0.8,20-2.8c0,0,0.1,0,0.1,0l0,0.2
				l0.1,0.4c5,26.3-3.5,42.6-3.5,42.8l-2.3,4.3h13.3l0.8-1.5c7.3-12.7,4.1-40,2.9-48.1c0-0.3,0.1-0.6,0.3-0.9
				c18.1-4.9,29.1-11.7,32.8-20.4c1.4-3.3,2.3-5.8,2.4-5.9c0.7-1.7,0.6-3.6-0.4-5.1c-1-1.3-2.5-2.1-4.2-2.1c-0.4,0-0.9,0-1.3,0.1
				l-0.4,0.1L117,157c-0.1,0.1-13.3,6.1-21,6.1c-2.3,0-3.1-0.5-3.3-1c2.6-3.2,18.4-11.4,32.2-17.5l0.1,0l0.1,0
				c3-1.7,5.1-4.5,5.8-7.9l5.1-14.9l0.2-0.4l0-0.5c0.1-1.6-0.5-3.2-1.6-4.4c-1-1-2.4-1.6-3.9-1.6c-0.8,0-1.5,0.1-2.2,0.4
				c-8.5,3-21.6,7.4-29.6,9.5c6.5-5.4,18.8-14.3,29.9-21.8c3-2.2,4.4-6,3.4-9.6l0-0.1l0-0.1L126.5,78l0-0.1l0-0.1
				c-1-2.4-3.3-4-5.9-4c-1.2,0-2.4,0.4-3.5,1l-0.1,0.1l-0.1,0.1c-9.6,7.5-21.1,15.1-26.7,17.4c3.8-5.2,14.3-16.4,23.8-25.8
				c2.9-2.9,1.7-9.4,0.3-11.5c-1.2-1.8-3.3-2.7-5.4-2.6c-1.2,0-2.4,0.3-3.5,0.7l-0.1,0.1l-0.1,0.1c-6.7,3.7-18.8,9.5-24.1,10
				c2.4-3.6,10.9-11.4,18.5-17.6l0.1,0l0.1,0c2.9-2.6,3.2-7,0.7-10l0,0l0,0l-14.4-16l0,0l0,0c-1.1-1.1-2.5-1.8-4.1-1.8
				c-2.4,0.1-4.4,1.7-5,4l-0.1,0.2l0,0.2c-1.3,7.6-3.5,15.1-5.2,18.3c-0.9-5-1.2-17.3-1-27.8c-0.1-3.7-2.2-7-5.5-8.6
				C64.5,3.8,56.1,0,49.7,0L49.7,0z"/>
		</g>
		
			<rect id="Rectangle_124" x="137" y="192.1" transform="matrix(9.023200e-03 -1 1 9.023200e-03 -93.4188 376.9078)" class="st0" width="13" height="86.9"/>
		<path id="Path_305" class="st0" d="M182.1,240.4l-78.6-0.6l6.6,50.1l64.4,0.6L182.1,240.4z"/>
	</g>
	<g id="Group_214" transform="translate(961.027 264.041)">
		<g id="Group_138" transform="translate(0 142.586)">
			<path id="Path_306" class="st0" d="M62.5,117c-11.5-3.4-22.8-9.4-30.7-18.9c69.8-30.5,21.2-21.3-8.2-14.6
				c-0.7-2.2-1.3-4.4-1.7-6.7c-0.5-2.9-1.2-5.7-2-8.5c54.1-14.4,21.1-13.6-4-11.7c-0.8-2-1.6-4-2.4-5.9C63.4,40,35,39.2,9,39.9
				c-1.2-3.1-2.3-6.1-3.2-9c44.5,5.3,22.3-5.3-1.6-14.3c0.4-2.6,1.4-5,3-7.2C9.6,6.1,14.6,4.4,21.1,4c11.7,17.7,23.9,33.5,11.8,0.5
				C40,5.5,47.1,7.2,54,9.4c-4.1,17-5,29.1,9.5,3.4c2.1,0.8,4.2,1.7,6.3,2.7c-4.6,24.1-8.7,52.9,9.6,4.9c5.8,3.2,11.1,7.1,16,11.6
				c-8.5,21.7-16.2,45.8,7.9,8.9c2.4,3.2,4.4,6.6,6.2,10.2C99,70,89.9,89.5,114.1,62.4c1.2,3.6,2.1,7.2,2.9,10.9
				c1.6,7.7-0.2,14.2-5.8,20.7c2-1-4.5,3.3-4.5,3.3c-1.8,2.9-0.6,3.9-0.6,3.9s21.2,23.8,31,40.4s-6,4.7-6,4.7s-2.8-14.1-28.7-41.7
				c-1.1-1.2-1.7-1.8-2.7-0.8c-2.5,2.8-3.7,4-4,4.3c-7,7.1-13.9,12.2-19.5,11.5c-1-0.1-2-0.3-3.1-0.4C92.8,93.4,78.6,103.3,62.5,117
				z"/>
			<path id="Path_307" class="st0" d="M21.1,4c6.7,10.2,13.6,19.7,16,19.7c1.7,0,1-5.2-4.2-19.2C40,5.5,47.1,7.2,54,9.4
				c-2.4,10-3.7,18.2-1.4,18.2c1.6,0,4.9-4.2,10.9-14.8c2.1,0.8,4.2,1.7,6.3,2.7c-2.8,14.5-5.4,30.9-2.9,30.9c1.6,0,5.3-7,12.6-26
				c5.8,3.2,11.1,7.1,16,11.6c-5.3,13.5-10.3,28-7.4,28c1.7,0,6.3-5.2,15.4-19.1c2.4,3.2,4.4,6.6,6.2,10.2
				c-6.8,12.3-13,24.8-10,24.8c1.6,0,6-3.7,14.6-13.3c1.2,3.6,2.1,7.2,2.9,10.9c1.6,7.7-0.2,14.2-5.8,20.7c0.1-0.1,0.2-0.1,0.4-0.2
				c0.3,0-4.9,3.5-4.9,3.5c-1.8,2.9-0.6,3.9-0.6,3.9s21.2,23.8,31,40.4c4,6.8,3.7,8.8,2,8.8c-2.5,0-8-4.2-8-4.2s-2.8-14.1-28.7-41.7
				c-0.7-0.8-1.2-1.3-1.7-1.3c-0.4,0-0.7,0.2-0.9,0.5c-2.5,2.8-3.7,4-4,4.3c-6.6,6.7-13.1,11.6-18.5,11.6c-0.3,0-0.7,0-1-0.1
				c-1-0.1-2.1-0.3-3.1-0.4c8.9-11.8,10.8-16.2,8.7-16.2c-2.5,0-10.7,6.3-19.5,13.8c-11.5-3.4-22.8-9.4-30.7-18.9
				C69.3,81.7,72.6,76.7,63,76.7c-8.2,0-25.9,3.6-39.5,6.7c-0.7-2.2-1.3-4.4-1.7-6.7c-0.5-2.9-1.2-5.7-2-8.5
				c38-10.1,33-12.7,18-12.7c-6.4,0-14.6,0.5-22,1c-0.8-2-1.6-4-2.4-5.9c41.9-9,28.7-11,8.1-11c-4,0-8.3,0.1-12.5,0.2
				c-1.2-3.1-2.3-6.1-3.2-9c6.1,0.8,12.2,1.3,18.3,1.4c18,0-0.4-8.4-19.8-15.7c0.4-2.6,1.4-5,3-7.2C9.6,6.1,14.6,4.4,21.1,4 M27.2,0
				l2.2,5.9c1,2.7,1.8,5,2.4,6.9c-1.9-2.6-4.4-6.1-7.5-10.8l-1.2-1.8l-2.2,0.1C12.8,0.7,7.1,3.1,4.1,7.3C2.2,9.9,1,12.9,0.5,16
				L0,19.1l2.9,1.1c6.8,2.4,13.4,5.2,19.9,8.3c-4-0.1-9.6-0.5-16.5-1.4l-5.7-0.7L2.2,32C3,34.7,4,37.6,5.5,41.3l1,2.5l2.7-0.1
				c4.6-0.1,8.7-0.2,12.4-0.2c2.3,0,4.3,0,6.1,0.1c-3.6,1-8.4,2.1-14.9,3.5l-4.4,1l1.7,4.2c1,2.4,1.7,4.2,2.3,5.9l1,2.6l2.8-0.2
				c8.5-0.6,15.5-1,20.8-1c-4,1.3-9.8,3.1-18.1,5.3l-3.7,1l1.1,3.7c0.8,2.9,1.5,5.6,2,8.1c0.5,2.4,1.1,4.8,1.9,7.2l1.1,3.2l3.3-0.8
				c15.3-3.5,27.3-5.7,34.5-6.4c-4.5,2.7-13,7-28.7,13.9l-4.6,2l3.2,3.9c7.6,9.2,18.9,16.1,32.6,20.1l1.9,0.6l1.5-1.3
				c3.4-2.8,6.1-5,8.3-6.8c-0.8,1.2-1.8,2.5-2.9,4l-3.8,5.1l6.3,1c1.1,0.2,2.2,0.3,3.2,0.4c0.5,0.1,0.9,0.1,1.4,0.1
				c5.8,0,12.5-4,21-12.5c0.9-0.8,1.7-1.7,2.5-2.6c23.5,25.4,26.7,38.6,26.7,38.7l0.3,1.3l1.1,0.9c2.4,1.8,7,5,10.3,5
				c1.8,0.1,3.4-0.9,4.3-2.4c1.5-2.6,0.6-5.9-3-12.1c-8.8-15-26.3-35.2-30.5-40c0.5-0.3,1-0.7,1.6-1.1c1.8-1.3,3.2-2.3,3.7-3.6
				c5.5-7,7.3-14.2,5.5-22.6c-0.8-3.8-1.8-7.6-3-11.3l-2-6.3l-4.4,4.9c-2,2.3-3.8,4.1-5.2,5.6c1.5-3.1,3.7-7.3,6.7-12.7l1-1.7
				l-0.9-1.8c-1.9-3.8-4-7.3-6.5-10.7l-3.2-4.4l-3,4.5c-2.9,4.4-5.2,7.7-7,10.2c1.2-3.7,3-8.7,5.7-15.7l0.9-2.4L98,29.2
				c-5.1-4.7-10.7-8.8-16.7-12.1l-3.8-2.2L75.8,19c-2.1,5.4-3.7,9.6-5.1,12.8c0.6-3.9,1.4-9,2.7-15.6l0.6-2.9L71.3,12
				c-2-0.9-4.2-1.8-6.4-2.7l-3.1-1.2L60.2,11c-1.7,3-3.1,5.3-4.2,7.1c0.4-2,0.9-4.6,1.7-7.7l0.8-3.4l-3.3-1.1
				c-7.1-2.3-14.4-4-21.8-5L27.2,0L27.2,0z"/>
		</g>
		<g id="Group_139" transform="translate(147.484 126.401)">
			<path id="Path_308" class="st0" d="M119.6,111.5c0,0-48.9-21.8-42.4-30.2C81,76.3,129,93.6,129,93.6c1.9,0.6,3.6,0.7,3.7,0.1
				l0.1-0.5c1.3-4.6,3.5-10,3.5-10c0.7-1.8-0.2-3.9-2-4.7c0,0-40.1-13.1-37.1-18.2c2.3-3.9,43.9,4,43.9,4c1.9,0.3,3.8,0.2,4-0.3
				s-0.6-2.3-2.5-3c0,0-28.3-10-29.3-12.1c-1.6-3.6,35.7,0.2,35.7,0.2c2.1,0.1,4.1-1,5.1-2.9l1.9-4.1c0.6-1.1,0.3-2.5-0.8-3.1
				c-0.4-0.2-0.9-0.3-1.3-0.3c0,0-28.7-0.9-27.6-3.7c1.3-3.5,31.3-12.5,31.3-12.5c1.9-0.6,3.1-2.6,2.8-4.6c-0.4-2-1.2-3.8-2.2-5.6
				c-2.6-4.4-13-7.3-13-7.3c-2.1-0.5-4.3,0.2-5.8,1.8c0,0-16.2,19.9-19.3,19.6c-5.4-0.6,5.8-19.7,5.8-19.7c0.8-1.8-0.2-3.2-2.2-3
				l-18.4,2.5c-2,0.4-3.3,2.2-3,4.2c0,0,4.3,22.7,1.5,25.2c-4.4,3.9-14.2-21.9-14.2-21.9c-0.9-1.8-2.7-2.9-4-2.5s-4.6,3.2-4.4,5.1
				c0,0,2.9,32.3,0.4,34.3C76.9,54.7,69.9,21,69.9,21c-0.5-1.6-2.1-2.5-3.7-2.1c-0.2,0.1-0.4,0.1-0.6,0.3l-12.1,6.9
				c-1.7,1.2-2.5,3.3-2,5.4c0,0,9.6,34,7.9,38C58,72.6,40.2,41.7,40.2,41.7c-0.5-1.2-1.9-1.7-3.1-1.2c-0.4,0.2-0.8,0.5-1,0.8
				l-5,12.8c-1.1,1.9-1.3,4.2-0.5,6.3c0,0,14.3,29.4,11.2,32.2c-6.6,6-17.5-17.5-17.5-17.5c-1.2-1.5-2.8-1.3-3.5,0.6
				c0,0-0.8,2.1-1.7,5.1c-2.9,9.3,4.8,22.2,10.3,30.1c0.3,1.3-0.2,2.6-1.1,3.5C25.4,117,6.4,134,4.1,146.3l4.4,3.7
				c0,0,3.5-16.3,22.4-31.5c0,0,1.3-1.7,3.6-0.4c8.9,11.7,15.4,18.2,23.5,18l1,0c1.2-0.1,1.3-1.5,0.3-3.2c0,0-15-19.4-8.8-20.2
				c3.3-0.4,23.5,18.8,23.5,18.8c1.5,1.4,3.7,2.1,5.8,1.8c1.8-0.4,5.3-3,4-4.4c0,0-15.9-16.9-14.5-17.9c4.8-3.4,30.3,16.7,30.3,16.7
				c1.9,1,4.2,1,6.1-0.1l14.5-11.8c1.1-1,1.2-2.7,0.2-3.8C120.2,111.8,119.9,111.6,119.6,111.5z"/>
			<path id="Path_309" class="st0" d="M124.3,3.8c1.7,0,2.6,1.3,1.9,3c0,0-11.2,19.1-5.8,19.7c0,0,0.1,0,0.1,0
				c3.3,0,19.2-19.6,19.2-19.6c1.2-1.2,2.8-2,4.5-2c0.4,0,0.9,0.1,1.3,0.2c0,0,10.4,2.9,13,7.3c1,1.7,1.8,3.6,2.2,5.6
				c0.3,2-0.9,3.9-2.8,4.6c0,0-30,9-31.3,12.5c-1,2.7,27.6,3.7,27.6,3.7c1.2-0.1,2.3,0.8,2.5,2.1c0,0.5-0.1,0.9-0.3,1.3l-1.9,4.1
				c-1,1.7-2.8,2.8-4.7,2.9c-0.1,0-0.3,0-0.4,0c0,0-17.1-1.7-27.6-1.7c-5,0-8.6,0.4-8.1,1.6c1,2.2,29.3,12.1,29.3,12.1
				c1.9,0.7,2.7,2.5,2.5,3c-0.2,0.3-1,0.5-2,0.5c-0.7,0-1.3-0.1-2-0.2c0,0-26.8-5.1-38.6-5.1c-2.9,0-4.9,0.3-5.3,1.1
				c-3,5.1,37.1,18.2,37.1,18.2c1.8,0.8,2.7,2.8,2,4.7c0,0-2.2,5.5-3.5,10l-0.1,0.5c-0.1,0.2-0.5,0.3-1,0.3c-0.9,0-1.8-0.2-2.7-0.5
				c0,0-36.9-13.2-48.5-13.2c-1.7,0-2.8,0.3-3.3,0.9c-6.6,8.4,42.4,30.2,42.4,30.2c1.3,0.7,1.8,2.3,1.1,3.6
				c-0.2,0.3-0.4,0.6-0.6,0.8l-14.5,11.8c-0.9,0.6-2,0.8-3.1,0.8c-1,0-2.1-0.2-3-0.8c0,0-21.7-17.1-28.9-17.1c-0.5,0-1,0.1-1.5,0.4
				c-1.3,1,14.5,17.9,14.5,17.9c1.3,1.4-2.2,4-4,4.4c-0.3,0.1-0.7,0.1-1,0.1c-1.8,0-3.5-0.7-4.8-1.9c0,0-19.8-18.8-23.3-18.8
				c0,0-0.1,0-0.1,0c-6.3,0.8,8.8,20.2,8.8,20.2c1,1.7,0.9,3.1-0.3,3.2l-1,0c-0.1,0-0.2,0-0.4,0c-7.9,0-14.4-6.5-23.1-18
				c-0.5-0.3-1.1-0.5-1.7-0.5c-0.7,0-1.4,0.3-1.9,0.9C12,133.7,8.5,150,8.5,150l-4.4-3.7C6.4,134,25.4,117,28.2,114.5
				c0.9-0.9,1.4-2.2,1.1-3.5c-5.5-7.9-13.1-20.8-10.3-30.1c0.9-2.9,1.7-5.1,1.7-5.1c0.4-1,1-1.6,1.8-1.6c0.7,0.1,1.3,0.4,1.7,1
				c0,0,8.6,18.4,15.1,18.4c0.9,0,1.7-0.4,2.4-1c3.1-2.8-11.2-32.2-11.2-32.2c-0.8-2.1-0.6-4.4,0.5-6.3l5-12.8c0.5-0.6,1.2-1,2-1
				c0.9,0,1.7,0.6,2.1,1.4c0,0,16.2,28,18.9,28c0.1,0,0.3-0.1,0.3-0.2c1.7-4-7.9-38-7.9-38c-0.5-2,0.3-4.2,2-5.4l12.1-6.9
				c0.5-0.2,1-0.4,1.5-0.4c1.3,0,2.5,0.9,2.8,2.2c0,0,6.2,30,11.1,30c0.3,0,0.6-0.1,0.9-0.3c2.5-2-0.4-34.3-0.4-34.3
				c-0.2-2,3.1-4.7,4.4-5.1c0.2-0.1,0.4-0.1,0.6-0.1c1.5,0.2,2.8,1.2,3.4,2.6c0,0,8.5,22.3,13.2,22.3c0.4,0,0.7-0.1,1-0.4
				c2.8-2.4-1.5-25.2-1.5-25.2c-0.3-2,1.1-3.8,3-4.2l18.4-2.5C124,3.8,124.2,3.8,124.3,3.8 M124.3,0L124.3,0c-0.2,0-0.4,0-0.7,0
				l-0.1,0l-0.1,0l-18.4,2.5l-0.1,0l-0.1,0c-4,0.7-6.7,4.4-6.1,8.4l0,0.1l0,0.1c1.1,5.9,1.9,11.8,2.3,17.8c-3-5.3-5.6-10.9-7.8-16.6
				l-0.1-0.2L93.2,12c-1.2-2.7-3.8-4.5-6.8-4.7c-0.6,0-1.1,0.1-1.7,0.3c-2.3,0.7-7.4,4.6-7.1,9c0.7,8.2,1.3,17.5,1.4,24
				c-2.2-6.7-4-13.5-5.5-20.4l0-0.2l-0.1-0.2C72.6,17,70,15.1,67,15.1c-1.1,0-2.2,0.3-3.2,0.8l-0.1,0l-0.1,0l-12.1,6.9l-0.1,0
				l-0.1,0.1c-3.1,2.1-4.6,6-3.6,9.6c2.4,8.3,4.7,17.6,6.3,24.7c-3.3-5.1-7.2-11.5-10.6-17.4c-1.6-3-5.2-4.1-8.2-2.6
				c-0.8,0.4-1.5,1-2,1.7l-0.4,0.5L32.6,40l-4.9,12.5c-1.6,2.9-1.8,6.4-0.6,9.5l0,0.1l0,0.1c4.8,10,9.8,21.9,11,27.1
				c-2.5-2-7-8.2-10.5-15.6l-0.2-0.4l-0.3-0.4c-1.1-1.5-2.8-2.3-4.7-2.4c-2.5,0.1-4.6,1.7-5.3,4.1c0,0.1-0.8,2.2-1.7,5.2
				c-2.5,8,0.9,18.8,9.9,32.1c-7,6.3-22.7,21.4-25,33.6L0,147.7l1.7,1.4l4.4,3.7l4.8,4.1l1.3-6.2c0-0.1,3.5-14.9,20.5-28.9
				c8.8,11.4,15.9,18,25,18c0.2,0,0.3,0,0.5,0l1,0c1.7,0,3.2-1,4-2.5c1-1.8,0.8-4.1-0.6-6.4l-0.1-0.2l-0.1-0.2
				c-2.7-3.4-5.1-7.1-7.3-10.8c4.5,3.5,10.9,9.2,16.4,14.4c2,1.9,4.6,2.9,7.4,3c0.6,0,1.3-0.1,1.9-0.2c2.3-0.5,6.1-2.9,7-5.9
				c0.5-1.7,0.1-3.5-1.1-4.8c-2.5-2.6-5.1-5.6-7.4-8.2c6.3,3.8,12.3,8,18.1,12.6l0.2,0.1l0.2,0.1c3.1,1.8,7,1.8,10.1-0.1l0.2-0.1
				l0.2-0.1l14.5-11.8l0.1-0.1l0.1-0.1c2.6-2.4,2.7-6.5,0.3-9.1c-0.4-0.5-1-0.9-1.5-1.2l-0.2-0.1l-0.2-0.1C102,99.5,84.5,89,81,84.2
				c9.6,0.3,36.8,9.5,46.7,13l0.1,0l0.1,0c1.2,0.4,2.5,0.6,3.8,0.7c3.4,0,4.4-2.3,4.6-3l0-0.1l0-0.1l0.1-0.5
				c1.2-4.3,3.3-9.6,3.3-9.7c1.5-3.8-0.3-8-4.1-9.6l-0.1-0.1l-0.1,0c-11-3.6-23.2-8.3-29.9-11.8c12.4,0.7,34.7,4.9,34.9,4.9l0,0l0,0
				c0.9,0.1,1.7,0.2,2.6,0.2c1,0,4.1,0,5.4-2.5c0.6-1.2,0.6-2.7,0.1-3.9c-0.8-2-2.5-3.6-4.6-4.4c-5.6-2-11.7-4.2-16.7-6.2
				c9.8,0.4,21.4,1.6,21.5,1.6c0.3,0,0.5,0,0.8,0c3.4,0,6.6-2,8.1-5l0,0l0,0l1.9-4.1c1.5-3,0.3-6.6-2.7-8.1
				c-0.9-0.4-1.8-0.7-2.8-0.6c-6-0.2-12.7-0.6-17.8-1.1c5.9-2.4,14.6-5.3,22.4-7.6c3.8-1.2,6.1-4.9,5.5-8.8
				c-0.5-2.4-1.4-4.7-2.7-6.9c-3.1-5.4-13.2-8.5-15.2-9c-0.7-0.2-1.5-0.3-2.3-0.3c-2.8,0-5.5,1.2-7.4,3.3c-4,4.9-8.7,10.3-12.3,14
				c1.5-3.4,3.1-6.6,5-9.8l0.1-0.2l0.1-0.2c0.8-1.9,0.7-4-0.4-5.7C128.1,0.9,126.2,0,124.3,0L124.3,0z"/>
		</g>
		<g id="Group_140" transform="translate(81.058 0)">
			<path id="Path_310" class="st0" d="M151.1,140.2c0,0-69.5,20.3-70.1,5.9c-0.4-8.3,64.2-32.5,64.2-32.5c2.5-1,4.2-2.4,4-3.1
				l-0.3-0.6c-2.7-5.8-5.2-13.4-5.2-13.4c-0.9-2.5-3.6-3.9-6.2-3.1c0,0-52.8,21.6-54.1,13.7c-1-6,48.8-34.3,48.8-34.3
				c2.3-1.4,4-3.1,3.8-3.8s-2.7-1.9-5.1-0.9c0,0-37.8,14.5-40.7,13.1c-4.8-2.3,36.9-31,36.9-31c2.3-1.7,3.4-4.6,2.8-7.4l-1.7-5.9
				c-0.8-2.6-3.1-3.3-5.2-1.6c0,0-30.3,24.1-31.7,20.4c-1.7-4.8,21.4-40.2,21.4-40.2c1.4-2.3,1-5.4-1.1-7.2
				c-2.1-1.7-4.6-2.9-7.1-3.8C98,2,84.7,8.1,84.7,8.1c-2.6,1.4-4.2,4-4.4,6.9c0,0,0.7,34.7-2.7,37c-6.1,4.2-11.3-25.3-11.3-25.3
				c-0.8-2.5-3-3.1-4.9-1.2L44.7,44.1c-1.7,2.1-1.5,5.1,0.5,7c0,0,24.3,19.7,23.5,24.6c-1.2,7.8-33.8-10.2-33.8-10.2
				c-2.5-1-5.3-0.6-6.3,0.9s-2,7.3-0.1,9.1c0,0,31.2,30.7,30.4,35c-1.5,8.5-38.2-20.1-38.2-20.1c-1.9-1.2-4.4-0.7-5.6,1.1
				c-0.2,0.2-0.3,0.5-0.4,0.8l-6.5,17.7c-0.7,2.7,0.3,5.7,2.6,7.3c0,0,39.7,26.6,41.4,32.2c1.3,4.4-44-11.9-44-11.9
				c-1.6-0.8-3.5-0.1-4.2,1.5c-0.3,0.5-0.4,1.1-0.3,1.7l6.1,17.6c0.6,2.9,2.4,5.5,5,7c0,0,40.4,17.8,39.7,23.4
				c-1.5,11.9-33.3-2.7-33.3-2.7c-2.6-0.5-4,1.2-3.1,3.7c0,0,1.1,2.9,2.7,6.7c5.2,12.1,24.3,18.7,36.8,22c1.4,1.1,2.1,2.8,1.9,4.5
				c-0.7,5-5.4,39.2,3,53.8h7.8c0,0-10.6-19.8-4.5-52c0,0-0.2-2.9,3.4-3.6c19.4,4.3,31.8,5.3,40-1.9l1-0.9c1.1-1.1,0-2.7-2.5-3.5
				c0,0-32.4-6.8-26.7-13.1c3-3.3,40.6-1.2,40.6-1.2c2.9,0.1,5.6-1,7.5-3.2c1.5-2,2.9-7.7,0.3-8c0,0-31.2-3.6-30.6-5.7
				c1.9-7.7,45.9-9.3,45.9-9.3c2.9-0.6,5.2-2.6,6.2-5.4l4.6-24.8c0.3-2-1.1-3.8-3-4.1C151.9,140.1,151.5,140.1,151.1,140.2z"/>
			<path id="Path_311" class="st0" d="M101,3.8c1.2,0,2.4,0.1,3.5,0.5c2.6,0.9,5,2.2,7.1,3.8c2.1,1.8,2.5,4.8,1.1,7.2
				c0,0-23.1,35.4-21.4,40.2c0.1,0.3,0.3,0.4,0.7,0.4c4.8,0,30.9-20.8,30.9-20.8c0.6-0.5,1.4-0.9,2.3-0.9c1.4,0.1,2.6,1.1,2.9,2.5
				l1.7,5.9c0.6,2.8-0.5,5.7-2.8,7.4c0,0-41.8,28.7-36.9,31c0.2,0.1,0.4,0.1,0.6,0.1c5.7,0,40.1-13.2,40.1-13.2
				c0.6-0.2,1.3-0.4,2-0.4c1.7,0,3.1,0.8,3.2,1.3c0.2,0.7-1.6,2.5-3.8,3.8c0,0-49.8,28.2-48.8,34.3c0.2,1.2,1.6,1.7,3.9,1.7
				c12.5,0,50.2-15.4,50.2-15.4c0.5-0.2,1-0.2,1.5-0.2c2.1,0,4,1.3,4.7,3.3c0,0,2.6,7.5,5.2,13.4l0.3,0.6c0.3,0.7-1.5,2.1-4,3.1
				c0,0-64.5,24.2-64.2,32.5c0.2,3.8,5,5.2,12.2,5.2c20.1,0,57.9-11.1,57.9-11.1c0.2,0,0.5-0.1,0.7-0.1c2-0.1,3.6,1.5,3.7,3.5
				c0,0.2,0,0.4,0,0.7l-4.6,24.8c-1,2.7-3.3,4.8-6.2,5.4c0,0-43.9,1.6-45.9,9.3c-0.5,2.1,30.6,5.7,30.6,5.7c2.7,0.3,1.2,6-0.3,8
				c-1.8,2-4.3,3.2-7,3.2c-0.2,0-0.4,0-0.6,0c0,0-11.9-0.7-22.8-0.7c-8.5,0-16.5,0.4-17.8,1.8c-5.8,6.3,26.7,13.1,26.7,13.1
				c2.5,0.9,3.6,2.5,2.5,3.5l-1,0.9c-4.2,3.8-9.6,5.3-16.6,5.3c-6.4,0-14.1-1.3-23.4-3.4c-3.6,0.7-3.4,3.6-3.4,3.6
				c-6.2,32.2,4.5,52,4.5,52h-7.8c-8.4-14.6-3.7-48.8-3-53.8c0.2-1.7-0.5-3.5-1.9-4.5c-12.5-3.3-31.7-9.9-36.8-22
				c-1.6-3.8-2.7-6.7-2.7-6.7c-0.8-2.2,0.2-3.8,2.2-3.8c0.3,0,0.6,0,0.9,0.1c0,0,16,7.4,25.8,7.4c4,0,7-1.2,7.4-4.7
				c0.7-5.5-39.7-23.4-39.7-23.4c-2.6-1.5-4.4-4-5-7L3.8,141c0-2.1,1.3-3.5,3.1-3.5c0.5,0,1,0.1,1.4,0.3c0,0,35.3,12.6,42.7,12.6
				c1,0,1.5-0.2,1.3-0.7c-1.7-5.6-41.4-32.2-41.4-32.2c-2.3-1.7-3.3-4.6-2.6-7.3l6.5-17.7c0.6-1.5,2.1-2.6,3.7-2.6
				c0.8,0,1.6,0.2,2.3,0.7c0,0,27.8,21.6,36,21.6c1.2,0,2-0.5,2.2-1.6c0.8-4.3-30.4-35-30.4-35c-1.9-1.9-0.9-7.6,0.1-9.1
				c0.8-1,2.1-1.6,3.5-1.5c1,0,1.9,0.2,2.8,0.6c0,0,22,12.2,30.5,12.2c1.8,0,3-0.6,3.3-2c0.7-4.9-23.5-24.6-23.5-24.6
				c-2-1.8-2.2-4.9-0.5-7l16.8-18.6c0.6-0.7,1.4-1.1,2.3-1.1c1.1,0,2.1,0.8,2.6,2.3c0,0,4.5,25.7,10.1,25.7c0.4,0,0.9-0.2,1.2-0.4
				c3.5-2.4,2.7-37,2.7-37c0.1-2.9,1.8-5.5,4.4-6.9C84.7,8.1,94.1,3.8,101,3.8 M101,0L101,0c-7.6,0-17.4,4.5-17.8,4.7
				c-3.9,2-6.5,5.9-6.6,10.3c0.2,11.5-0.1,24.8-1,31.2c-1.9-4.1-4.1-12.1-5.5-20.1l0-0.3l-0.1-0.3c-1-3-3.3-4.9-6.2-4.9
				c-1.9,0.1-3.7,0.9-5,2.3l-0.1,0.1L58.6,23L41.9,41.6l-0.1,0.1l0,0.1c-3,3.7-2.6,9,0.9,12.2l0.1,0.1l0.1,0.1
				c8.3,6.8,17.6,15.3,20.9,19.7c-6.4-1.1-19.5-7.4-27-11.5l-0.2-0.1L36.4,62c-1.4-0.6-2.8-0.9-4.3-0.9c-2.6-0.1-5.1,1.1-6.7,3.3
				c-1.5,2.4-3.2,10.2,0.4,13.9c10.4,10.2,21.8,22.4,26.8,28.9c-6.9-3.1-19.4-11.6-29.6-19.6l-0.2-0.1l-0.2-0.1
				c-1.3-0.8-2.8-1.2-4.3-1.2c-3.2,0-6,1.9-7.2,4.9l0,0.1l0,0.1l-6.5,17.7l0,0.1l0,0.1c-1.2,4.3,0.4,9,4.1,11.6
				c12.2,8.2,25.7,17.9,33.5,24.2c-9.3-2.5-23.4-7.2-32.7-10.6c-0.9-0.3-1.8-0.5-2.7-0.5c-1.8,0-3.5,0.7-4.8,2
				c-1.4,1.4-2.1,3.4-2,5.3l0,0.6l0.2,0.6l5.9,17.3c0.8,4,3.4,7.5,7,9.4l0.1,0l0.1,0c15.7,6.9,33.6,16.2,37.2,20.1
				c-0.4,0.4-1.3,0.7-3.4,0.7c-7.4,0-20-5.1-24.3-7l-0.4-0.2l-0.5-0.1c-0.5-0.1-1-0.1-1.6-0.1c-2.1-0.1-4,0.9-5.2,2.6
				c-1.2,1.9-1.4,4.2-0.5,6.3c0,0.1,1.1,3,2.8,6.9c4.3,10.1,17.2,18.2,38.3,23.9c0.1,0.2,0.2,0.4,0.2,0.6
				c-1.3,9.4-5.1,41.4,3.4,56.2l1.1,1.9h16.3l-3-5.6c-0.1-0.2-9.9-19.2-4.1-49.5l0.1-0.3c10.3,2.2,17.2,3.2,23,3.2
				c8.2,0,14.3-2,19.1-6.3l1-0.9c1.3-1.2,2-3,1.6-4.8c-0.5-2.2-2.4-4.1-5.4-5.1l-0.2-0.1l-0.2,0c-9.1-1.9-18-4.8-22.2-7
				c4.2-0.4,8.4-0.6,12.6-0.5c10.3,0,21.7,0.6,22.5,0.7c0.3,0,0.5,0,0.8,0c3.9,0,7.5-1.8,10-4.7c1.7-2.3,3.4-7.5,1.9-10.8
				c-0.7-1.8-2.4-3-4.3-3.2c-7.6-0.9-16.1-2.1-21.9-3.1c7.7-2,22-3.8,36.8-4.4l0.2,0l0.2,0c4.3-0.8,7.8-3.9,9.3-8l0.1-0.2l0-0.2
				l4.6-24.8l0-0.2l0-0.2c0.2-2.1-0.5-4.3-1.9-5.9c-1.4-1.5-3.4-2.4-5.5-2.4c-0.4,0-0.9,0-1.3,0.1l-0.2,0l-0.2,0.1
				c-0.4,0.1-37.6,10.9-56.8,10.9c-5.6,0-7.5-0.9-8.2-1.3c3.9-4.8,30.8-17.5,61.5-29l0.1,0l0.1,0c7.2-3,6.6-6.6,6-8l0-0.1l0-0.1
				l-0.3-0.6c-2.6-5.6-5-12.9-5.1-13c-1.2-3.5-4.5-5.9-8.2-5.9c-0.9,0-1.8,0.1-2.7,0.4l-0.1,0l-0.1,0.1c-9.6,3.9-35.3,13.7-46.5,15
				c7-6.2,26.8-18.7,44.5-28.8l0,0l0,0c3-1.8,6.3-4.6,5.6-7.9c-0.6-2.8-3.9-4.2-6.9-4.2c-1.1,0-2.3,0.2-3.3,0.6
				c-10.4,4-21.9,8.1-29.7,10.5c7.1-5.9,18.7-14.6,29.4-21.9c3.6-2.6,5.3-7.1,4.3-11.5l0,0l0,0l-1.7-5.9c-0.7-3-3.4-5.2-6.5-5.3
				c-1.7,0-3.3,0.6-4.6,1.7c-8.1,6.4-17.6,13.4-23.6,17.2c3.6-7.6,11.4-20.8,18.8-32c2.5-3.9,1.7-9.1-1.8-12.1
				c-2.5-2-5.3-3.5-8.3-4.5C104.2,0.2,102.6,0,101,0L101,0z"/>
		</g>
		
			<rect id="Rectangle_125" x="93.9" y="267.2" transform="matrix(1 -9.023231e-03 9.023231e-03 1 -2.473 1.315)" class="st0" width="101.2" height="15.1"/>
		<path id="Path_312" class="st0" d="M99.5,280.4l91.5-0.7l-7.7,58.4l-75,0.7L99.5,280.4z"/>
	</g>
	<g id="Group_215" transform="translate(723.765 205.356)">
		<path id="Path_12" class="st1" d="M313.3,380.5c-1.7,2.4-3.5,4.6-5.5,6.7c-2.7,2.4-10.2,6.3-7,8.7h25.1c2.4,0-0.8-15.7-0.8-15.7
			L313.3,380.5z"/>
		<path id="Path_13" class="st1" d="M379.4,379.8c1.7,2.4,3.5,4.6,5.5,6.7c2.7,2.4,10.2,6.3,7,8.7h-25.1c-2.4,0,0.8-15.7,0.8-15.7
			L379.4,379.8z"/>
		<path id="Path_14" class="st1" d="M176.9,381.3c1.7,2.4,3.5,4.6,5.5,6.7c2.7,2.4,10.2,6.3,7,8.7h-25.1c-2.4,0,0.8-15.7,0.8-15.7
			L176.9,381.3z"/>
		<path id="Path_15" class="st1" d="M112.5,382.1c-1.7,2.4-3.5,4.6-5.5,6.7c-2.7,2.4-10.2,6.3-7,8.7H125c2.4,0-0.8-15.7-0.8-15.7
			L112.5,382.1z"/>
		<g id="Group_6" transform="translate(127.216 6.676)">
			<path id="Path_16" class="st2" d="M118,195.8c-9.1,30.7,7,39.7,16.7,111.6c2.5,18.5,4.5,36.8,7.5,66.8c2.2,0.8,4.6,1.3,7,1.3
				c6.7-0.4,8.7-1,8.7-1s-1.4-34.9-0.4-70.4c1.1-38.3,2.3-84.6,1.8-88.2C157.1,181.1,118,195.8,118,195.8z"/>
			<path id="Path_17" class="st2" d="M85,199.5c-5.4,19.4-7.8,40.6-0.3,98.3c1.1,23.8,3.2,42,2.5,77.2c0,0,0.5,1.5,4.7,1.5
				c5.7,0,8.7-0.1,10.3-0.6c0,0,4.9-40.4,8.4-76.9c3.3-33.8,9.8-48.2,10.8-66.4C136.9,179.7,91.6,197.6,85,199.5z"/>
			<path id="Path_18" class="st3" d="M82.4,215.4l1.4-9.8l72.9-4c0,0,1.9,7.7,2.4,11.8c-1.5,1.4-3.3,2.3-5.3,2.7
				c-1.5,0.2-22.6,5.7-30.1,6.2C106.5,223.3,92.1,217.1,82.4,215.4z"/>
			<path id="Path_19" class="st2" d="M134,243.8h-24.5c-4,0-7.3-2.4-7.3-5.4v-5.9c0-3,3.3-5.4,7.3-5.4H134c4,0,7.3,2.4,7.3,5.4v5.9
				C141.2,241.4,138,243.8,134,243.8z"/>
			<path id="Path_20" class="st4" d="M87.7,89.7c0,0-42.1,20.6-48.5,21.4S4,88.2,4,88.2L0,98.7l35.7,34.7l62.5-12.9"/>
			<path id="Path_21" class="st1" d="M89.6,25c-2.5,8.7,3.6,30,1.5,40c-3.6,18.2,1.3,46.8,25.5,50.1c27.3,0.9,27.2-7.6,31.2-18.9
				c1.5-4.5-2.3-26.2,0-36.4c3.3-14.7,4.2-35.8-0.5-44.9C142.3,5.7,101.8-18.1,89.6,25z"/>
			<path id="Path_22" class="st4" d="M132.9,83.4c0,0,55.8,26.4,62.2,27.2c6.4,0.8,35.2-22.9,35.2-22.9l4.1,10.6L198.6,133
				l-49.6-8.1"/>
			<path id="Path_23" class="st5" d="M109.3,60.3c0.3,7.6,1,21.3-1.6,23.1c-1,0.7,7.8,33.5,14.9,34.7c4.6,0.8,13.5-26.6,10.3-34.9
				c-0.4,1.6-3.6-7.7-3.1-20C130,55,109.3,60.3,109.3,60.3z"/>
			<path id="Path_24" class="st5" d="M103.4,58.4c4,6.7,9.1,11.6,17.9,11.6c7.2,0,10.8-3.1,15.1-10.8c5-8.9,6.7-31.3-0.4-42.3
				c-7-10.9-24.4-9.2-32.2,0S96.4,46.9,103.4,58.4z"/>
			<path id="Path_25" class="st6" d="M133.8,88.2c0,0-6.8,8.3-12.1,8.5s-12.5-4-15.8-8.5l-3.3,2c0,0,10.5,10.1,19.2,9.6
				s14.7-9.6,14.7-9.6L133.8,88.2z"/>
			<path id="Path_26" class="st1" d="M147.2,46.1c-6.5-2.7-11.6-10.8-13.5-17.6c-13.4,13.6-26.2,17.9-38.5,17.9
				c0,0-2.3-27.3,2.8-29.7s19.3-15.4,29.9-9.1C152.9,22.2,147.2,46.1,147.2,46.1z"/>
			<path id="Path_27" class="st4" d="M158,212.5c-5.8,1.7-21.2,7.1-36.7,7.1c-19.9-0.1-40-6.1-40.2-8.1c14.9-59.4,4.1-69.1,7.9-92.2
				c0,0-3.9-7.9-3.9-13c0.2-4.2-1.2-14.7-1.2-14.7c3.7-1.8,8.2-4.2,12.8-5.9c2.1-0.8,11-2.1,11-2.1s4.3,19.9,13.6,29
				c8.2-6.7,11.6-29.2,11.6-29.2l11.2,4.2c0,0,7.9,3.8,14.5,7.7c0,0-4.3,15.5-5.9,23.9c4.7,20-6,38.2,6.8,89.5
				C159.4,208.7,161,211.6,158,212.5z"/>
			<path id="Path_28" class="st7" d="M109.4,66c3.8,3.3,14.8,6,20.4,1.6l-0.1,1.8c0,0-8.9,9.8-20.3-1.6L109.4,66L109.4,66z"/>
		</g>
		<g id="Group_7" transform="translate(289.428 6.472)">
			<path id="Path_29" class="st8" d="M52.1,196.5c-9.1,30.7,7,39.7,16.7,111.6c2.5,18.5,4.5,36.8,7.5,66.8c2.2,0.8,4.6,1.3,7,1.3
				c6.7-0.4,8.7-1,8.7-1s-1.4-34.9-0.4-70.4c1.1-38.3-1.5-85-4.3-90.5C85.1,179.5,52.1,196.5,52.1,196.5z"/>
			<path id="Path_30" class="st8" d="M21.1,200.6c-5.4,19.4-4.6,31.2-2.8,96.1c0.6,22.4,3.7,43.7,3.1,79c0,0,0.5,1.5,4.7,1.5
				c5.7,0,8.7-0.1,10.3-0.6c0,0,4.9-40.4,8.4-76.9c3.3-33.8,9.8-48.2,10.8-66.4C71,180.5,27.7,198.7,21.1,200.6z"/>
			<path id="Path_31" class="st8" d="M68.1,244.5H43.6c-4,0-7.3-3.3-7.3-7.3v-8c0-4,3.3-7.3,7.3-7.3h24.5c4,0,7.3,3.3,7.3,7.3v8
				C75.4,241.2,72.1,244.5,68.1,244.5z"/>
			<path id="Path_32" class="st1" d="M50.9,0.9c-3.1,1.8-3.5,3.6-3.6,7.6c-0.1,3.8-2.4,11.6,6.7,12.8c9.1,1.3,12.8-1.2,14.3-5.5
				s2.8-7.4,0-11.2C67.4,3.3,58.5-2.2,50.9,0.9z"/>
			<path id="Path_33" class="st1" d="M34.6,11.4C27.1,15.8,19.8,22.2,19.5,32c1.1,9.4-1.6,26.1,20.6,29.2s31-2.9,34.7-13.3
				s3.9-19.2-2.6-28.6C70,15.9,50.9,2.1,34.6,11.4z"/>
			<path id="Path_34" class="st9" d="M41.3,84.5c-0.5,1-2.9,15.4,9.2,17.7c14.6,2.7,11.5-11.7,14.8-14.2c0,0-1.9-7.7-3-14.9
				c-0.7-7.4,1.1-5.9,3.6-15.5v-0.2c3.7-9,3.5-24.8-2-33.4c-6.5-10-22.4-8.5-29.5,0C27.2,32.4,26.8,47,33.6,63
				c2.1,4.9,4.8,7.5,8.7,8.7C42.3,71.8,42.6,81.7,41.3,84.5z"/>
			<path id="Path_35" class="st10" d="M79.6,209.8c-13.4,3.9-61.1,3.2-61.3-0.3c4.2-36.5-3.6-85.2-2.3-88.7c0,0-3.9-12.1-3.7-15.3
				c0.2-4.2-0.2-4,6.2-12.7c1.5-2.1,12.4-6.2,12.4-6.2l10.9-4.3c0,0,2.7,9.3,8.4,9.3c10.2,0,13.7-9.5,13.7-9.5l10.8,5.6
				c0,0,8.3,3.3,13.6,7.1c0,0,0.2,27.2-1.4,35.4c-5.7,41.1-0.3,53.9,0.5,73.9C87.3,204.3,82.6,208.9,79.6,209.8z"/>
			<path id="Path_36" class="st11" d="M56.3,151.4c0,0,8.8,0.3,11.2,2.2c0,0-0.9,8.4-0.7,9.1c0,0-7.9-1.1-10.2-1.1
				c0,0-5.3,1.3-14.6,3.1c0,0-0.7-5.1-0.9-10.2L56.3,151.4z"/>
			<path id="Path_37" class="st1" d="M38.5,14.7c9.7-5.7,22.8,6.2,27.4,8.4c4.7,2.3,2.5,30.9,2.5,30.9c-11.6-3.8-6.8-8.4-11.9-15.3
				c-4.4,9.4-24.7,2.8-29.7,5.7C26.8,44.4,15.6,28.2,38.5,14.7z"/>
			<path id="Path_38" class="st1" d="M87.8,213.2c-0.1,0.6,1.1,8,1.2,8.8s-10.9,1.9-18.5,0c-2.3-0.5-4.1-7.6-2.7-9
				s17.2,0.3,17.2,0.3L87.8,213.2z"/>
			<path id="Path_39" class="st1" d="M42,212.3c0.3,2.9,0.7,5.8,1.4,8.7c0.3,0.7-0.1,3.6-25.9,1.7c0,0,0.1-5.7,1.5-7.1
				s16.8-3.2,16.8-3.2L42,212.3z"/>
			<path id="Path_40" class="st12" d="M85.3,93.3c2.7,17.5-3,82,5.6,124.5c0.8,4.3-21.1,2.6-23.1,0.4c-3.5-3.6-2.2-43.7,0.4-72.9
				c3.5-38.6-0.5-61.4-0.5-61.4L85.3,93.3z"/>
			<path id="Path_41" class="st12" d="M20.6,89.5c-2.7,17.5,3.5,79.5-7.7,128c-1,4.3,31.5,3,31.3,1c-3.6-25.4,0.4-42.6-3.6-70.8
				c-5.8-41.3-1.5-64.3-1.5-64.3L20.6,89.5z"/>
			<path id="Path_42" class="st13" d="M41.2,156.1c0.4,0.2,0.7,5.8,0.9,8.6c0,0-15,2.6-23.3,3.1c0,0,0.2-3.3,0-8.3L41.2,156.1z"/>
			<path id="Path_43" class="st9" d="M38.2,138.2c-5.8-0.9-11.4-2.5-19,6.5c-7.5,8.9,5.6,10.8,8.1,8.2c2.5-2.5,4.1-9,10.8-8.4"/>
			<path id="Path_44" class="st13" d="M86.5,155.3c-0.4,2.4-0.5,4.9-0.4,7.4c-6.3,1-12.8,1-19.1,0c0,0,0.3-6.6,0.8-8.1L86.5,155.3z"
				/>
			<path id="Path_45" class="st12" d="M24.1,128.2c-1.9,5.3-3.4,10.7-4.5,16.2c4.8,2,43.8-3.4,43.8-3.4l4.3,10.8
				c0,0-36.6,12.4-57,13.1C1.8,165.4,0,155.7,0,151c0-22.1,9.8-54.6,20.6-61.6"/>
			<path id="Path_46" class="st9" d="M67.2,141.2c5.4-2.6,10.2-5.6,20,0.8c9.8,6.4-2.3,11.8-5.4,10.2s-6.5-7.5-12.8-4.9"/>
			<path id="Path_47" class="st12" d="M85.3,93c8.9,5.6,13.5,31.5,16.9,54.1c0.5,3.6,0.2,12.7-6.7,13.5
				c-14.9,1.8-52.9-13.4-62.2-16.3c0,0,0.5-7.6,2-7.4c28.2,4,50.4,7,50.4,7l-4-19"/>
			<path id="Path_48" class="st14" d="M156.8,51.2"/>
			<path id="Path_49" class="st13" d="M55.9,155.7c0,0-23.1-9.7-22.6-11.2l28.4,9.5L55.9,155.7z"/>
			<path id="Path_50" class="st15" d="M60.1,65.3c0,0-8.8,7.7-18,6.4c0,0,0.4-0.5,0.2,2.4C42.3,74.1,53.8,73.5,60.1,65.3z"/>
		</g>
		<path id="Path_51" class="st5" d="M357.7,91.6c6.9,1,15.8-4.6,17.3,6.9s-10.5,6-11.2,2.6S363.8,94.7,357.7,91.6"/>
		<path id="Path_52" class="st11" d="M142.3,98.3l3.6-1.1l-0.5-1.4L142.3,98.3z"/>
		<path id="Path_53" class="st11" d="M154.6,95.8l1.9,1.5l-2.3-0.3L154.6,95.8z"/>
		<g id="Group_8" transform="translate(56.585)">
			<path id="Path_54" class="st16" d="M15.9,25.2C19,18,12.3,14,10.4,10.5s4.5-17.4,11.8-6.1s3.7,17,0.7,23.1"/>
			<path id="Path_55" class="st17" d="M86.6,203c-9.1,30.7,3.1,34.1,12.7,106c2.5,18.5,4.3,43.2,7.2,73.2c0,0,7.7,0.6,11.2,0.5
				c6.7-0.4,8.7-1,8.7-1s1.8-41.1,0-76c-2-38.3-5.6-86.7-6-90.2C118.2,180.6,86.6,203,86.6,203z"/>
			<path id="Path_56" class="st17" d="M54.2,219.8c-1.3,22.1,0.2,22.3-2.4,86.4c-0.9,22.4,0.6,41.1-0.1,76.4c2.8,0.7,5.7,1,8.7,1.1
				c5.7,0,8.7-0.1,10.3-0.6c0,0,4.9-40.4,8.4-76.9c3.3-33.8,9.8-48.2,10.8-66.4C105.3,186.9,60.8,217.9,54.2,219.8z"/>
			<path id="Path_57" class="st17" d="M102.4,251H77.9c-4,0-7.3-3.3-7.3-7.3v-8c0-4,3.3-7.3,7.3-7.3h24.5c4,0,7.3,3.3,7.3,7.3v8
				C109.7,247.7,106.4,251,102.4,251z"/>
			<path id="Path_58" class="st1" d="M74.1,27.7c-3-1.5-6.6-0.3-8,2.7c-0.4,0.9-0.6,1.8-0.6,2.8c0.1,3.4-0.7,6.8-2.3,9.8
				C59,50.6,68,55.3,70.6,59.5c2.6,4.1,1.6,11.2,7.4,13.3s20.6,0.2,22-5.6C101,62.5,87.7,34.8,74.1,27.7z"/>
			<path id="Path_59" class="st16" d="M92.8,20.8c-14,0.3-19.1,10.3-19,28.9c0,6.9,3.3,13.8,5.8,18C81.5,71,82,74.8,81,78.4
				l-2.9,10.5c-1.9,9.8,2.7,14.9,9.6,16.8c3.5,0.8,7.3,0.1,10.3-1.9c3.5-2.3,3.6-7.2,2.9-11.3l-0.8-3c-1.2-3.9,1-8.1,4.9-9.3
				c0.1,0,0.1,0,0.2,0c3.1-0.7,6.4-0.2,8.7-1.9c2.3-1.6,7.5-18.5,4.6-36.2C115.5,23.9,106.8,20.6,92.8,20.8z"/>
			<path id="Path_60" class="st1" d="M120.9,18.7c-3.1-4.1-6,2.4-10.2,2c-1-0.1-2-0.3-3-0.5l-15.6-4.3c-9.4,0.1-25,5.7-22.7,19.3
				l1.8,9.2c0.7,3.9,1.5,2.4,5.5,2.8l3.4,3c0.4,1.3,0.8,3.8,2.2,3.7c1.7,0,3-1.4,3-3.1c0,0,0,0,0,0c0-4.3,2.9-8.1,7.1-9.1
				c5.2-1.3,10.6-4,16.4-2.5h0.1c5,1.3,10.9,2.9,13.3-3.6C123.3,31.9,122.7,21.8,120.9,18.7z"/>
			<path id="Path_61" class="st16" d="M79.9,52c-0.3,3.5-1.8,6.2-5.2,5.8c-3.3-0.3-5-5.3-4.7-8.7s2.6-4.1,5.9-3.8
				C79.1,45.5,80.2,48.5,79.9,52z"/>
			<path id="Path_62" class="st1" d="M85.1,51.1c-0.4,5.8,1.6,10.3,3.5,11.7c1.7,1.4,22.5,1.6,30.1,0.7c3,3,0.7,11-5.2,16.2
				c-4.8,4.3-20.3-3-27.2-6.1c-5.4-2.4-5.9-21.3-6.8-25.7C78.5,43.5,85.4,47.1,85.1,51.1z"/>
			<path id="Path_63" class="st16" d="M127.5,215.5c0,0,0.9,6.8-5.7,16.5s-12.4-2.9-10.1-5.6c3-3.4,6.2-6.5,9.5-9.6"/>
			<path id="Path_64" class="st8" d="M122.7,102c11.2,5.8,22.4,49.7,24.8,71.6c1.8,18.8-19.1,50.9-19.1,50.8l-8.7-6.1
				c0,0,14.9-34.9,12.4-44.1c-3.6-11.5-9.3-32-11.7-34.7"/>
			<path id="Path_65" class="st8" d="M53.7,128.7C32.2,119.9,22,113.6,6.4,98.3c-18-18.8,7.8-79,9.2-76.8l10.9,7.3
				c0,0-10.7,49-5.9,53.7c8.6,8.5,31.3,12.9,34.7,14.3"/>
			<path id="Path_66" class="st10" d="M79.1,85.8l14.2,6.4l6.3-4.9l7.7,9.8l6.2,79.3l-51.2-1.8l9.8-78.6L79.1,85.8z"/>
			<path id="Path_67" class="st18" d="M95.1,169.9l7.3-10.9l-6.3-55.9l1.7-7.3l-4.6-3.6l-4.6,3.6l2.7,7.3l-4.6,57.7"/>
			<path id="Path_68" class="st17" d="M116.2,219.6c0,0-0.6,10.6,5.3,14.5l-1.2,5.3l-19.7-0.5l4.1-16L116.2,219.6z"/>
			<path id="Path_69" class="st19" d="M55.2,215.5c-0.7,3.2-1.1,6.4-1.2,9.7c0,0,38.9,3.6,62.1-2.6v-0.9c0,0,2.7-2.8,3.5-3.4l0.8-2
				l-0.4-3.8L55.2,215.5z"/>
			<path id="Path_70" class="st8" d="M106.4,93.5c0.1-0.3,14.4,4.8,19.9,12c0,0-2,25.2-3.6,33.5c-2.4,38.4,0.4,53.3,0.5,73.9
				c0,0-4.7,4.6-7.7,5.5c-13.4,3.9-66,4.9-66.2,1.5c4.2-36.5,2.5-83.7,2.6-90.4c0-3.9-3.9-12.1-3.7-15.3c0.2-4.2-10.1-20.3,3.9-18.3
				c3.8,0.3,15.8-2.7,15.8-2.7l7.6-2.9c0,0,13,27.2,18.7,27.2C98.6,117.5,104.1,103.4,106.4,93.5z"/>
		</g>
		<path id="Path_71" class="st5" d="M130.4,90.8c-6.8,1.5-16.1-3.3-16.7,8.4s10.9,5.1,11.4,1.6S124.6,94.4,130.4,90.8"/>
		<path id="Path_72" class="st1" d="M180.3,133l-1.2,10.9l3.1,9C182.2,152.9,181.3,139.7,180.3,133z"/>
		<path id="Path_73" class="st1" d="M283.6,380.5c1.7,2.4,3.5,4.6,5.5,6.7c2.7,2.4,10.2,6.3,7,8.7H271c-2.4,0,0.8-15.7,0.8-15.7
			L283.6,380.5z"/>
		<path id="Path_74" class="st1" d="M216.1,381.3c-1.7,2.4-3.5,4.6-5.5,6.7c-2.7,2.4-10.2,6.3-7,8.7h25.1c2.4,0-0.8-15.7-0.8-15.7
			L216.1,381.3z"/>
		<g id="Group_12" transform="translate(0 258.569)">
			<g id="Group_11">
				<g id="Group_10">
					<path id="Path_75" class="st18" d="M7.8,69.3l50.4,0.3l-3.1,36l-47.7-0.9"/>
					<path id="Path_76" class="st20" d="M17.7,109l27.2-0.3l-0.2,14.7H19"/>
					<path id="Path_77" class="st20" d="M37.4,83.5l31.9-10.2l4.6,13.9l-30.2,9.4"/>
					<g id="Group_9" transform="translate(33.262)">
						<ellipse id="Ellipse_1" class="st20" cx="6.1" cy="6.1" rx="6.1" ry="6.1"/>
						
							<rect id="Rectangle_2" x="-9.1" y="18.1" transform="matrix(0.1055 -0.9944 0.9944 0.1055 -15.1286 22.6251)" class="st20" width="28.2" height="3.2"/>
					</g>
					<path id="Path_78" class="st18" d="M0,26.5l66.6,2.8l-2.2,35.9L1.4,62.1"/>
					<ellipse id="Ellipse_2" class="st10" cx="49.6" cy="44.6" rx="6.7" ry="6.7"/>
					<ellipse id="Ellipse_3" class="st10" cx="25.1" cy="42.9" rx="6.7" ry="6.7"/>
				</g>
			</g>
		</g>
	</g>
</g>
</svg>
