<?xml version="1.0" standalone="no"?>
<!DOCTYPE svg PUBLIC "-//W3C//DTD SVG 20010904//EN"
 "http://www.w3.org/TR/2001/REC-SVG-20010904/DTD/svg10.dtd">
<svg version="1.0" xmlns="http://www.w3.org/2000/svg"
 width="1952.000000pt" height="1952.000000pt" viewBox="0 0 1952.000000 1952.000000"
 preserveAspectRatio="xMidYMid meet">
<metadata>
Created by potrace 1.11, written by Peter Selinger 2001-2013
</metadata>
<g transform="translate(0.000000,1952.000000) scale(0.100000,-0.100000)"
fill="#000000" stroke="none">
<path d="M3320 12503 c0 -5 177 -298 394 -653 l393 -645 2119 -3 2119 -2 698
-1323 c383 -727 727 -1377 762 -1445 l65 -122 -3632 2 -3631 3 -439 925 c-241
509 -442 928 -446 932 -4 3 -392 -708 -863 -1580 l-856 -1587 6010 -3 c3306
-1 6012 0 6015 2 3 4 -1098 2104 -2634 5021 l-253 480 -2910 3 c-1601 1 -2911
-1 -2911 -5z"/>
<path d="M10770 12505 c0 -3 651 -1242 1446 -2755 l1446 -2750 2909 0 c1600 0
2909 3 2909 8 0 4 -155 295 -344 647 l-344 640 -2168 5 -2168 5 -778 1445
c-428 795 -778 1448 -778 1453 0 4 979 7 2176 7 1737 0 2175 3 2171 13 -3 6
-151 298 -330 647 l-326 635 -2910 3 c-1601 1 -2911 0 -2911 -3z"/>
</g>
</svg>
